<?xml version="1.0" encoding="UTF-8" standalone="no"?>
<!-- Created with Inkscape (http://www.inkscape.org/) -->

<svg
   version="1.1"
   id="svg2"
   width="3198.3018"
   height="449.10172"
   viewBox="0 0 3198.3018 449.10172"
   sodipodi:docname="Coursera-Logo.png.svg"
   inkscape:version="1.1.2 (0a00cf5339, 2022-02-04)"
   xmlns:inkscape="http://www.inkscape.org/namespaces/inkscape"
   xmlns:sodipodi="http://sodipodi.sourceforge.net/DTD/sodipodi-0.dtd"
   xmlns="http://www.w3.org/2000/svg"
   xmlns:svg="http://www.w3.org/2000/svg">
  <defs
     id="defs6" />
  <sodipodi:namedview
     id="namedview4"
     pagecolor="#505050"
     bordercolor="#eeeeee"
     borderopacity="1"
     inkscape:pageshadow="0"
     inkscape:pageopacity="0"
     inkscape:pagecheckerboard="0"
     showgrid="false"
     inkscape:zoom="0.25"
     inkscape:cx="1596"
     inkscape:cy="-194"
     inkscape:window-width="1920"
     inkscape:window-height="1023"
     inkscape:window-x="0"
     inkscape:window-y="20"
     inkscape:window-maximized="1"
     inkscape:current-layer="g8" />
  <g
     inkscape:groupmode="layer"
     inkscape:label="Image"
     id="g8"
     transform="translate(-28.924908,-695.29179)">
    <path
       style="fill:#0383ff;fill-opacity:1;stroke:none"
       d="m 670.13708,1142.8551 c -0.87853,-0.9961 -3.32939,-1.462 -7.69098,-1.462 -3.52086,0 -6.67967,-0.45 -7.01959,-1 -0.33992,-0.55 -2.58992,-1 -5,-1 -2.41008,0 -4.66008,-0.45 -5,-1 -0.33992,-0.55 -2.36492,-1 -4.5,-1 -2.13508,0 -4.16008,-0.45 -4.5,-1 -0.33992,-0.55 -1.91492,-1 -3.5,-1 -1.58508,0 -3.16008,-0.45 -3.5,-1 -0.33992,-0.55 -1.72258,-1 -3.07259,-1 -1.35,0 -3.23594,-0.4172 -4.19098,-0.927 -2.41275,-1.2881 -5.45765,-2.3947 -7.23643,-2.63 -1.8294,-0.242 -8.91851,-2.9192 -15,-5.6648 -2.475,-1.1174 -5.625,-2.5363 -7,-3.1533 -1.375,-0.6169 -2.725,-1.3498 -3,-1.6285 -0.275,-0.2788 -4.1,-2.2981 -8.5,-4.4874 -4.4,-2.1893 -8.87235,-4.7744 -9.93856,-5.7448 -1.06621,-0.9703 -2.52871,-1.7642 -3.25,-1.7642 -0.72129,0 -1.31144,-0.45 -1.31144,-1 0,-0.55 -0.5625,-1.0005 -1.25,-1.0012 -0.6875,-7e-4 -2.55749,-1.1257 -4.15554,-2.5 -1.59805,-1.3743 -3.306,-2.4988 -3.79545,-2.4988 -0.48946,0 -1.94836,-1.0125 -3.24202,-2.25 -1.29365,-1.2375 -4.98177,-4.275 -8.19583,-6.75 -7.45241,-5.7388 -28.48624,-26.7454 -34.36116,-34.3168 -2.475,-3.1896 -5.24368,-6.6916 -6.15263,-7.782 -0.90895,-1.0904 -3.14153,-4.4392 -4.96129,-7.4418 -1.81976,-3.0026 -3.66358,-5.4593 -4.09737,-5.4593 -0.43379,0 -0.78871,-0.8625 -0.78871,-1.9167 0,-1.0541 -0.3375,-2.0666 -0.75,-2.25 -1.45091,-0.6448 -6.1004,-8.1763 -6.68781,-10.8333 -0.36414,-1.6471 -6.12435,-12.5575 -6.77543,-12.8333 -0.43272,-0.1834 -0.78676,-0.977 -0.78676,-1.7636 0,-0.7866 -0.3975,-2.2116 -0.88333,-3.1667 -0.48583,-0.955 -1.43833,-3.0864 -2.11667,-4.73643 -0.67834,-1.65 -1.62238,-3.7678 -2.09787,-4.7063 -0.47549,-0.9385 -1.1571,-3.536 -1.51468,-5.7722 -0.35759,-2.2362 -1.04105,-4.3074 -1.5188,-4.6027 -0.47776,-0.2952 -0.86865,-1.8337 -0.86865,-3.4188 0,-1.5851 -0.45,-3.1601 -1,-3.5 -0.55,-0.3399 -1,-1.9149 -1,-3.5 0,-1.5851 -0.45,-3.1601 -1,-3.5 -0.55,-0.3399 -1,-2.3015 -1,-4.359 0,-2.0576 -0.40852,-4.1685 -0.90781,-4.691 -0.96295,-1.0077 -1.42472,-4.4787 -3.2528,-24.45 -1.42206,-15.5356 -1.42206,-18.4644 0,-34 1.82808,-19.9713 2.28985,-23.4423 3.2528,-24.45 0.49929,-0.5225 0.90781,-2.6334 0.90781,-4.691 0,-2.0575 0.45,-4.0191 1,-4.359 0.55,-0.3399 1,-2.1399 1,-4 0,-1.8601 0.39812,-3.628 0.8847,-3.9287 0.78103,-0.4827 1.50274,-3.071 2.45406,-8.8009 0.15794,-0.9513 0.59633,-2.0388 0.9742,-2.4167 0.37787,-0.3779 0.68704,-1.4983 0.68704,-2.48996 0,-0.9916 0.9,-3.4052 2,-5.3637 1.1,-1.9585 2,-4.4471 2,-5.5304 0,-1.0833 0.45,-1.9696 1,-1.9696 0.55,0 1,-0.9 1,-2 0,-1.1 0.45,-2 1,-2 0.55,0 1,-0.6392 1,-1.4204 0,-1.7529 7.09337,-15.95318 8.19865,-16.41293 0.44074,-0.18334 0.80135,-1.19584 0.80135,-2.25 0,-1.05417 0.45,-1.91667 1,-1.91667 0.55,0 1,-0.59015 1,-1.31144 0,-0.72129 0.9,-2.27747 2,-3.45819 1.1,-1.18071 2,-2.54581 2,-3.03357 0,-0.48775 0.9,-1.70131 2,-2.6968 1.1,-0.99549 2,-2.33679 2,-2.98067 0,-0.64389 1.125,-2.22758 2.5,-3.51933 1.375,-1.29175 2.5,-2.77798 2.5,-3.30274 0,-1.56675 5.70553,-8.06298 20.45537,-23.29021 7.67546,-7.92388 14.44663,-14.40705 15.04705,-14.40705 0.60043,0 2.84934,-1.8 4.99758,-4 2.14824,-2.2 4.30689,-4 4.797,-4 0.49011,0 3.55381,-2.025 6.80822,-4.5 3.25441,-2.475 6.36209,-4.5 6.90595,-4.5 0.54386,0 0.98883,-0.45 0.98883,-1 0,-0.55 0.59015,-1 1.31144,-1 0.72129,0 2.18379,-0.81022 3.25,-1.80049 1.62795,-1.512 4.27122,-3.02201 6.43856,-3.67814 2.18841,-0.66251 12.57046,-6.10793 12.83333,-6.73113 0.18334,-0.43463 1.19584,-0.79024 2.25,-0.79024 1.05417,0 1.91667,-0.45 1.91667,-1 0,-0.55 0.9,-1 2,-1 1.1,0 2,-0.45 2,-1 0,-0.55 0.87344,-1 1.94098,-1 1.06754,0 2.1949,-0.41084 2.50524,-0.91299 0.31034,-0.50214 2.35954,-1.2163 4.55378,-1.58701 2.19424,-0.37071 4.24344,-1.08487 4.55378,-1.58701 0.31034,-0.50215 1.63614,-0.91299 2.94622,-0.91299 1.31008,0 2.66008,-0.45 3,-1 0.33992,-0.55 1.68992,-1 3,-1 1.31008,0 2.66008,-0.45 3,-1 0.33992,-0.55 1.91492,-1 3.5,-1 1.58508,0 3.16008,-0.45 3.5,-1 0.33992,-0.55 2.13992,-1 4,-1 1.86008,0 3.66008,-0.45 4,-1 0.33992,-0.55 2.30148,-1 4.35902,-1 2.05754,0 4.16848,-0.41041 4.69098,-0.91201 1.01141,-0.97097 8.21607,-1.87382 20.45,-2.56268 4.125,-0.23227 9.80969,-0.95468 12.63264,-1.60537 3.32701,-0.76687 8.25213,-0.93627 14.00002,-0.48154 17.4898,1.38369 27.973,2.46091 34.3673,3.53148 3.575,0.59855 8.3,1.34628 10.5,1.66162 2.2001,0.31534 4.4276,0.97726 4.9501,1.47093 0.5225,0.49366 2.435,0.89757 4.25,0.89757 1.815,0 3.3,0.45 3.3,1 0,0.55 1.575,1 3.5,1 1.9249,0 3.4999,0.45 3.4999,1 0,0.55 1.3234,1 2.941,1 1.6175,0 3.1832,0.39188 3.4792,0.87084 0.4535,0.73384 4.1259,1.93528 8.0798,2.64338 1.7022,0.30484 4.8354,1.56897 8.8445,3.56842 2.1145,1.05455 4.477,1.91736 5.25,1.91736 0.773,0 1.409,0.3375 1.4133,0.75 0.01,0.75296 4.7311,3.25 6.1476,3.25 0.4161,0 2.9866,1.31484 5.7121,2.92186 2.7255,1.60702 5.2203,2.65702 5.544,2.33333 0.3237,-0.32369 0.5885,-0.0635 0.5885,0.57814 0,0.64167 0.6938,1.16667 1.5418,1.16667 0.848,0 2.4838,0.87756 3.6351,1.95014 1.1512,1.07258 3.5454,2.63927 5.3204,3.48155 1.7749,0.84227 3.7943,2.21471 4.4874,3.04986 0.6931,0.83515 1.8016,1.51845 2.4634,1.51845 0.6618,0 2.2602,1.125 3.5519,2.5 1.2917,1.375 2.7563,2.5 3.2545,2.5 0.4983,0 2.9438,1.6875 5.4346,3.75 7.1686,5.93594 34.3109,32.56536 34.3109,33.66253 0,0.54574 1.4027,2.43948 3.1171,4.20832 1.7145,1.76884 3.627,4.09952 4.25,5.17929 0.6231,1.07977 3.0387,4.68194 5.3681,8.00482 4.7191,6.73198 10.0779,15.76992 10.9364,18.44504 0.3089,0.9625 0.9592,1.75 1.445,1.75 0.4859,0 0.8834,0.9 0.8834,2 0,1.1 0.3375,2.00351 0.75,2.0078 0.8981,0.009 3.25,4.8518 3.25,6.6916 0,0.7153 0.45,1.3006 1,1.3006 0.55,0 1,0.6811 1,1.5136 0,0.8324 0.4172,2.2949 0.927,3.25 0.5099,0.955 1.2585,2.6364 1.6636,3.7364 0.4052,1.1 0.8252,2.225 0.9333,2.5 0.1082,0.275 0.5427,1.9719 0.9656,3.7708 0.4228,1.799 1.1607,3.513 1.6397,3.809 0.4789,0.29596 0.8708,1.61006 0.8708,2.92016 0,1.3101 0.45,2.6601 1,3 0.55,0.3399 1,1.9415 1,3.559 0,1.6176 0.45,2.941 1,2.941 0.55,0 1,1.5484 1,3.441 0,1.8925 0.45,3.7191 1,4.059 0.55,0.3399 1,2.0765 1,3.859 0,1.7826 0.4085,3.6685 0.9078,4.191 0.9482,0.9922 1.7935,7.1072 2.6195,18.95 0.2685,3.85 0.8618,8.125 1.3184,9.5 1.1745,3.5372 1.2445,23.6691 0.1,28.754 -0.5266,2.3398 -1.1509,7.2898 -1.3872,11 -0.2364,3.7103 -0.9263,9.446 -1.5332,12.746 -0.6069,3.3 -1.3584,7.6903 -1.67,9.7563 -0.3115,2.0659 -0.9689,4.005 -1.4608,4.309 -0.4919,0.304 -0.8944,2.1012 -0.8944,3.9937 0,1.8926 -0.45,3.441 -1,3.441 -0.55,0 -1,1.26 -1,2.8 0,1.54 -0.366,3.2275 -0.8134,3.75 -0.4474,0.5225 -2.1349,5 -3.75,9.95 -1.6151,4.95 -3.2741,9.15003 -3.6866,9.33333 -0.4125,0.1834 -0.75,1.1693 -0.75,2.191 0,1.0217 -0.45,2.1358 -1,2.4757 -0.55,0.3399 -1,1.4915 -1,2.559 0,1.0676 -0.45,1.941 -1,1.941 -0.55,0 -1,0.9 -1,2 0,1.1 -0.3577,2 -0.795,2 -0.4372,0 -1.63,2.025 -2.6507,4.5 -1.0206,2.475 -2.2379,4.5 -2.705,4.5 -0.4671,0 -0.8493,0.9 -0.8493,2 0,1.1 -0.45,2 -1,2 -0.55,0 -1,0.5901 -1,1.3114 0,0.7213 -0.9,2.2775 -2,3.4582 -1.1,1.1807 -2,2.5307 -2,3 0,0.4693 -0.7875,1.7502 -1.75,2.8464 -0.9625,1.0963 -2.2,2.6888 -2.75,3.539 -4.0908,6.3236 -6.5341,9.6076 -8.3703,11.25 -1.1713,1.0477 -2.1297,2.4032 -2.1297,3.0121 0,1.4503 -30.1864,31.5828 -31.6393,31.5828 -0.6137,0 -1.7329,0.7435 -2.4871,1.6523 -1.7991,2.1677 -11.5354,9.3477 -12.6759,9.3477 -0.4883,0 -1.7022,0.9 -2.6977,2 -0.9955,1.1 -2.209,2 -2.6968,2 -0.4878,0 -1.8529,0.9 -3.0336,2 -1.1807,1.1 -2.7369,2 -3.4582,2 -0.7213,0 -1.3114,0.3491 -1.3114,0.7759 0,0.4267 -2.0207,1.6642 -4.4905,2.75 -2.4698,1.0857 -4.4948,2.3116 -4.5,2.7241 -0.01,0.4125 -0.872,0.75 -1.9262,0.75 -1.0541,0 -2.0666,0.3375 -2.25,0.75 -0.4801,1.0802 -8.7623,5.25 -10.4278,5.25 -0.773,0 -1.4055,0.45 -1.4055,1 0,0.55 -0.8734,1 -1.941,1 -1.0675,0 -2.2191,0.45 -2.559,1 -0.3399,0.55 -1.4915,1 -2.559,1 -1.0676,0 -1.941,0.45 -1.941,1 0,0.55 -1.0984,1 -2.441,1 -1.3425,0 -2.7069,0.4303 -3.032,0.9563 -0.3251,0.526 -1.2061,0.7203 -1.9579,0.4319 -0.7517,-0.2885 -1.6639,-0.044 -2.027,0.5436 -0.3631,0.5875 -1.732,1.0682 -3.0421,1.0682 -1.3101,0 -2.6601,0.45 -3,1 -0.3399,0.55 -1.9149,1 -3.5,1 -1.585,0 -3.16,0.45 -3.4999,1 -0.3399,0.55 -1.9149,1 -3.5,1 -1.5851,0 -3.1601,0.45 -3.5,1 -0.3399,0.55 -2.3649,1 -4.5,1 -2.1351,0 -4.1602,0.45 -4.5001,1 -0.3399,0.55 -2.5899,1 -5,1 -2.4101,0 -4.6601,0.45 -5,1 -0.3399,0.55 -3.4797,1 -6.9772,1 -6.8822,0 -9.8307,0.6928 -8.958,2.1048 0.3193,0.5167 -8.4566,0.8791 -20.7557,0.8572 -17.40566,-0.031 -21.54526,-0.3059 -22.59849,-1.5 z m 43.23939,-108.5557 c 0.5225,-0.4984 2.6334,-0.9062 4.691,-0.9062 2.0575,0 4.0191,-0.45 4.359,-1 0.3399,-0.55 1.7226,-1 3.0726,-1 1.35,0 3.2359,-0.3975 4.191,-0.8833 2.4675,-1.2553 9.852,-4.2484 11.2364,-4.5545 1.6472,-0.3641 12.5576,-6.1244 12.8334,-6.7754 0.1834,-0.4328 0.9709,-0.7868 1.75,-0.7868 0.7792,0 1.4167,-0.45 1.4167,-1 0,-0.55 0.5625,-1.0251 1.25,-1.0557 1.1997,-0.054 5.0453,-2.8891 15.434,-11.3807 2.6488,-2.1651 6.3909,-5.88533 8.3159,-8.26713 1.925,-2.3819 4.4515,-5.3355 5.6144,-6.5636 2.878,-3.0393 10.3856,-14.3727 10.3856,-15.678 0,-0.5802 0.45,-1.0549 1,-1.0549 0.55,0 1,-0.6613 1,-1.4696 0,-0.8083 0.9252,-3.1169 2.0561,-5.1303 1.1309,-2.0134 2.7285,-5.7396 3.5504,-8.2804 0.8218,-2.5408 1.8877,-5.5197 2.3685,-6.6197 0.4809,-1.1 1.161,-3.35 1.5114,-5 0.3504,-1.65 1.1261,-5.25 1.7238,-8 1.2166,-5.5972 1.4247,-31.5602 0.3087,-38.5 -0.3981,-2.475 -1.1277,-4.9275 -1.6213,-5.45 -0.4937,-0.5225 -0.8976,-2.1834 -0.8976,-3.691 0,-1.5075 -0.45,-3.0191 -1,-3.359 -0.55,-0.3399 -1,-1.4976 -1,-2.5726 0,-1.075 -0.4172,-2.7359 -0.927,-3.691 -0.8351,-1.5642 -2.2032,-4.944 -2.5246,-6.2364 -0.4423,-1.779 -4.3648,-9.1676 -6.7317,-12.6802 -1.5492,-2.2991 -2.8167,-4.5622 -2.8167,-5.0292 0,-0.467 -0.9,-1.4978 -2,-2.2906 -1.1,-0.7928 -2,-2.0411 -2,-2.7739 0,-1.6804 -22.625,-24.22606 -24.3114,-24.22606 -0.6859,0 -1.8958,-0.9 -2.6886,-2 -0.7928,-1.1 -1.9323,-2 -2.5322,-2 -0.5999,0 -1.963,-0.7875 -3.0291,-1.75 -1.0662,-0.9625 -3.2886,-2.42428 -4.9386,-3.24841 -1.65,-0.82412 -3.225,-1.74757 -3.5,-2.0521 -0.8085,-0.89528 -7.7024,-3.94949 -8.9148,-3.94949 -0.6118,0 -2.0063,-0.45 -3.0989,-1 -1.0925,-0.55 -2.8803,-1.45 -3.9728,-2 -1.0926,-0.55 -2.866,-1 -3.941,-1 -1.075,0 -2.202,-0.40028 -2.5043,-0.88951 -0.3024,-0.48923 -2.0164,-1.14549 -3.809,-1.45835 -1.7926,-0.31286 -5.7343,-1.10554 -8.7593,-1.76152 -5.9452,-1.28922 -34.35362,-1.56026 -42.49996,-0.40549 -2.75,0.38983 -5.4275,1.11515 -5.95,1.61182 -0.5225,0.49668 -2.18344,0.90305 -3.69098,0.90305 -1.50754,0 -3.0191,0.45 -3.35902,1 -0.33992,0.55 -1.49758,1 -2.57259,1 -1.88795,0 -2.86129,0.36118 -7.66384,2.84387 -1.23004,0.63587 -2.91754,1.15613 -3.75,1.15613 -0.83246,0 -1.51357,0.47656 -1.51357,1.05902 0,0.58246 -0.41891,0.80012 -0.9309,0.48369 -0.512,-0.31644 -1.21356,-0.11799 -1.55902,0.44098 -0.34546,0.55897 -1.50156,1.01631 -2.5691,1.01631 -1.06754,0 -1.94098,0.45 -1.94098,1 0,0.55 -0.43597,1 -0.96882,1 -0.95645,0 -11.70778,6.90547 -17.52861,11.2584 -4.26553,3.1899 -16.47202,15.5123 -20.05113,20.24156 -6.60741,8.7307 -13.34526,20.7166 -17.70766,31.5 -0.55626,1.375 -1.39489,3.4 -1.86363,4.5 -4.36697,10.248 -5.41857,41.9803 -1.92211,58 0.60022,2.75 1.14154,5.675 1.20294,6.5 0.0614,0.825 0.43488,1.95 0.82997,2.5 0.39508,0.55 1.33199,3.1375 2.08201,5.75 0.75002,2.6125 1.71543,4.75 2.14536,4.75 0.42992,0 0.78168,0.9 0.78168,2 0,1.1 0.45,2 1,2 0.55,0 1,0.9 1,2 0,1.1 0.45,2 1,2 0.55,0 1,0.4589 1,1.0199 0,0.5609 1.22831,2.9234 2.72957,5.25 1.50126,2.3265 3.18876,4.9635 3.75,5.8598 7.26183,11.5975 30.36186,33.23343 37.0414,34.69363 0.81346,0.1779 1.47903,0.6943 1.47903,1.1476 0,0.8742 14.25927,8.0291 16.00146,8.0291 0.56412,0 1.91957,0.45 3.01211,1 1.09254,0.55 2.88032,1.45 3.97286,2 1.09254,0.55 3.09098,1 4.44098,1 1.35001,0 2.70329,0.4025 3.00731,0.8944 0.57278,0.9268 4.12559,1.5997 16.06528,3.0429 8.32676,1.0064 33.59536,0.261 34.94996,-1.0311 z m 393.18843,108.5937 c -0.4228,-1.1016 -2.1617,-1.5 -6.548,-1.5 -3.2848,0 -6.2505,-0.45 -6.5904,-1 -0.3399,-0.55 -2.3649,-1 -4.5,-1 -2.1351,0 -4.1601,-0.45 -4.5,-1 -0.3399,-0.55 -2.1399,-1 -4,-1 -1.8601,0 -3.6601,-0.45 -4,-1 -0.3399,-0.55 -1.7165,-1 -3.059,-1 -1.3426,0 -2.441,-0.45 -2.441,-1 0,-0.55 -0.9061,-1 -2.0136,-1 -1.1074,0 -2.7949,-0.3951 -3.75,-0.8779 -4.2013,-2.1241 -9.4216,-4.1221 -10.7703,-4.1221 -0.8064,0 -1.4661,-0.45 -1.4661,-1 0,-0.55 -0.9,-1 -2,-1 -1.1,0 -2,-0.45 -2,-1 0,-0.55 -0.8007,-1 -1.7792,-1 -0.9786,0 -2.428,-0.9 -3.2208,-2 -0.7928,-1.1 -1.8509,-2 -2.3513,-2 -0.5004,0 -3.1021,-1.575 -5.7816,-3.5 -2.6794,-1.925 -5.2831,-3.5 -5.7859,-3.5 -1.4545,0 -24.8637,-23.7178 -27.8638,-28.2311 -1.4946,-2.2484 -3.49823,-5.2536 -4.45263,-6.6784 -0.9543,-1.4248 -2.1449,-3.5089 -2.6458,-4.6315 -0.5008,-1.1226 -1.6325,-2.6402 -2.5148,-3.3724 -0.8823,-0.7323 -1.6042,-1.9513 -1.6042,-2.7089 0,-0.7577 -0.45,-1.3776 -1,-1.3776 -0.55,0 -1,-0.9 -1,-2 0,-1.1 -0.45,-2 -1,-2 -0.55,0 -1,-0.9 -1,-2 0,-1.1 -0.3975,-2 -0.8834,-2 -0.7763,0 -1.923,-2.4935 -2.5293,-5.5 -0.2914,-1.4452 -1.5871,-4.7261 -2.6603,-6.7364 -0.5098,-0.9551 -0.927,-2.6426 -0.927,-3.75 0,-1.1075 -0.45,-2.0136 -1,-2.0136 -0.55,0 -1,-1.0984 -1,-2.441 0,-1.3425 -0.45,-2.7191 -1,-3.059 -0.55,-0.3399 -1,-1.6899 -1,-3 0,-1.3101 -0.45,-2.6601 -1,-3 -0.55,-0.3399 -1,-2.1665 -1,-4.059 0,-1.8926 -0.4047,-3.441 -0.8993,-3.441 -0.8488,0 -1.3407,-2.5425 -2.6598,-13.75 -0.3075,-2.6125 -0.8278,-5.425 -1.1563,-6.25 -1.2135,-3.04803 -1.3716,-16.42353 -1.8399,-155.74999 l -0.4782,-142.25 h 54.50943 54.5095 l 0.385,131.75 c 0.2118,72.46246 0.7066,134.22496 1.0995,137.24996 0.393,3.025 1.123,5.9275 1.6223,6.45 0.4993,0.5225 0.9078,2.435 0.9078,4.25 0,1.815 0.45,3.3 1,3.3 0.55,0 1,1.35 1,3 0,1.65 0.45,3 1,3 0.55,0 1,0.8116 1,1.8037 0,1.6328 3.225,8.63073 6.298,13.66593 0.6611,1.0833 2.4395,3.1763 3.952,4.6512 1.5125,1.4749 2.75,3.1243 2.75,3.6654 0,0.5411 1.0125,1.6669 2.25,2.5017 1.2375,0.8349 3.9385,3.1367 6.0023,5.115 2.0638,1.9784 4.4263,3.5971 5.25,3.5971 0.8237,0 1.4977,0.3975 1.4977,0.8834 0,0.4858 0.7875,1.1331 1.75,1.4383 0.9625,0.3053 3.1,1.3258 4.75,2.2679 4.9937,2.8514 6.3848,3.4104 8.4864,3.4104 1.1075,0 2.0136,0.45 2.0136,1 0,0.55 1.3234,1 2.941,1 1.6175,0 3.1853,0.3954 3.484,0.8787 1.8188,2.9428 46.8894,2.9542 50.0249,0.013 0.5225,-0.4902 2.1834,-0.8913 3.691,-0.8913 1.5075,0 3.0191,-0.45 3.359,-1 0.3399,-0.55 1.399,-1 2.3536,-1 2.0594,0 17.1602,-7.4607 22.1478,-10.9423 4.119,-2.8753 15.9986,-14.7262 15.9986,-15.96 0,-0.469 0.7219,-1.4519 1.6042,-2.1842 0.8823,-0.7322 2.0228,-2.2498 2.5345,-3.3724 0.5116,-1.1226 2.224,-4.29113 3.8052,-7.04113 1.5812,-2.75 2.9157,-6.0125 2.9655,-7.25 0.05,-1.2375 0.5406,-2.25 1.0906,-2.25 0.55,0 1,-1.0984 1,-2.441 0,-1.3425 0.45,-2.7191 1,-3.059 0.55,-0.3399 1,-1.6899 1,-3 0,-1.3101 0.45,-2.6601 1,-3 0.55,-0.3399 1,-2.3015 1,-4.359 0,-2.0576 0.4028,-4.1685 0.8951,-4.691 2.0778,-2.2051 2.4201,-21.1192 2.5101,-138.69996 l 0.095,-123.75004 54.75,2e-5 54.75,2e-5 v 214.99996 214.99993 h -54.5 c -42.915,0 -54.5073,-0.2657 -54.5344,-1.25 -0.019,-0.6875 0,-11.5234 0.034,-24.0798 0.063,-21.267 -0.052,-22.8066 -1.6905,-22.4911 -0.9671,0.1862 -2.2733,1.3712 -2.9025,2.6333 -0.6292,1.2621 -1.9905,3.0919 -3.0251,4.0663 -1.0346,0.9744 -2.7811,3.0658 -3.8811,4.6475 -3.748,5.3892 -16.7045,17.2579 -22.4491,20.5642 -1.347,0.7753 -3.2871,2.1438 -4.3114,3.0412 -1.0243,0.8973 -4.8722,3.1454 -8.5509,4.9956 -3.6788,1.8502 -6.8395,3.7063 -7.024,4.1246 -0.1845,0.4184 -0.7287,0.5176 -1.2093,0.2206 -0.4807,-0.2971 -1.9048,0 -3.1646,0.6499 -4.8216,2.5047 -5.8218,2.8777 -7.7181,2.8777 -1.075,0 -2.2327,0.45 -2.5726,1 -0.3399,0.55 -1.6899,1 -3,1 -1.3101,0 -2.6601,0.45 -3,1 -0.3399,0.55 -1.9149,1 -3.5,1 -1.585,0 -3.16,0.45 -3.4999,1 -0.3399,0.55 -2.5899,1 -5,1 -2.4101,0 -4.6601,0.45 -5,1 -0.3399,0.55 -3.5306,1 -7.0904,1 -4.8307,0 -6.6184,0.3805 -7.048,1.5 -0.4854,1.2651 -3.7521,1.5 -20.8616,1.5 -17.1095,0 -20.3762,-0.2349 -20.8616,-1.5 z m 715.113,0.25 c -0.2685,-0.8084 -3.7425,-1.5078 -9.8333,-1.9798 -16.2278,-1.2573 -21.3875,-1.9167 -22.3682,-2.8582 -0.5225,-0.5016 -2.8584,-0.912 -5.191,-0.912 -2.3325,0 -4.5191,-0.45 -4.859,-1 -0.3399,-0.55 -2.3915,-1 -4.559,-1 -2.1676,0 -3.941,-0.45 -3.941,-1 0,-0.55 -1.5484,-1 -3.441,-1 -1.8925,0 -3.687,-0.3981 -3.9877,-0.8847 -0.3008,-0.4866 -1.7898,-1.1161 -3.3091,-1.3989 -1.5192,-0.2828 -3.8872,-0.8302 -5.2622,-1.2164 -1.375,-0.3862 -3.7375,-0.9328 -5.25,-1.2146 -1.5125,-0.2818 -2.75,-0.8131 -2.75,-1.1806 0,-0.3675 -2.1375,-1.2901 -4.75,-2.0502 -2.6125,-0.7601 -4.975,-1.649 -5.25,-1.9754 -0.275,-0.3264 -5.7875,-3.2817 -12.25,-6.5673 -6.4625,-3.2856 -11.75,-6.3199 -11.75,-6.7429 0,-0.4229 -0.5901,-0.769 -1.3114,-0.769 -0.7213,0 -2.2775,-0.9 -3.4582,-2 -1.1807,-1.1 -2.4305,-2 -2.7772,-2 -0.3468,0 -2.9454,-2.025 -5.7747,-4.5 -2.8293,-2.475 -5.4428,-4.5 -5.8079,-4.5 -0.9359,0 -14.8706,-14.0398 -14.8706,-14.9829 0,-0.4267 -1.8,-2.6307 -4,-4.8977 -2.2,-2.2668 -4,-4.5011 -4,-4.9649 0,-0.4638 -1.1245,-2.1508 -2.4988,-3.7489 -1.3743,-1.598 -2.4993,-3.4305 -2.5,-4.0722 -7e-4,-0.6416 -0.3387,-1.3166 -0.7512,-1.5 -1.4431,-0.6413 -5.9984,-8.0051 -6.7016,-10.8333 -0.068,-0.275 -0.9443,-2.1839 -1.9464,-4.2419 -1.0022,-2.058 -1.6002,-4.308 -1.3289,-5 0.2713,-0.692 3.1333,-2.6057 6.3601,-4.2527 3.2267,-1.6471 6.0918,-3.2282 6.3668,-3.5135 0.275,-0.2854 2.75,-1.6378 5.5,-3.0054 2.75,-1.3676 5.15,-2.824 5.3333,-3.2365 0.1834,-0.4125 1.1959,-0.75 2.25,-0.75 1.0542,0 1.9167,-0.45 1.9167,-1 0,-0.55 0.3375,-0.8959 0.75,-0.7688 0.9925,0.306 16.6545,-7.4383 17.0833,-8.447 0.1834,-0.4313 1.1584,-0.7842 2.1667,-0.7842 1.0083,0 1.9833,-0.3553 2.1667,-0.7895 0.1833,-0.4341 3.9333,-2.5669 8.3333,-4.7395 4.4,-2.1726 8.15,-4.2923 8.3333,-4.7105 0.1834,-0.4183 1.1584,-0.7605 2.1667,-0.7605 1.0083,0 1.9833,-0.3395 2.1667,-0.7544 0.1833,-0.4149 3.4833,-2.3183 7.3333,-4.2298 3.85,-1.91153 7.3306,-3.93453 7.7347,-4.49563 0.4041,-0.5611 0.7416,-0.7067 0.75,-0.3236 0.01,0.3831 2.4285,-0.5728 5.378,-2.1244 l 5.3626,-2.8209 1.324,3.3744 c 0.7282,1.8558 1.69,3.3743 2.1373,3.3743 0.4474,0 0.8134,0.8007 0.8134,1.7792 0,0.97863 0.9,2.42803 2,3.22083 1.1,0.7928 2,1.9699 2,2.6158 0,0.6459 1.1172,2.234 2.4827,3.5292 1.3655,1.2953 2.5027,2.805 2.5271,3.355 0.064,1.4362 6.1215,7.7533 10.0993,10.5314 1.865,1.3025 3.7177,2.8943 4.1172,3.5373 0.3995,0.643 2.087,1.7326 3.75,2.4215 1.663,0.6888 3.0237,1.5639 3.0237,1.9445 0,0.3806 1.575,1.31 3.5,2.0653 1.925,0.7553 3.5,1.7393 3.5,2.1866 0,0.4474 0.6325,0.8134 1.4055,0.8134 0.773,0 3.3605,0.9639 5.75,2.142 7.5364,3.7157 7.6069,3.7346 26.3445,7.0521 7.6941,1.3623 35.1923,1.376 43,0.021 10.414,-1.8067 15.8623,-3.2702 20.5,-5.5066 5.2119,-2.5132 11.8937,-8.8781 13.8667,-13.2089 0.7516,-1.65 1.7641,-3.7814 2.25,-4.7364 1.1434,-2.2477 1.1434,-12.2795 0,-14.5272 -0.4859,-0.955 -1.4984,-3.0864 -2.25,-4.7364 -1.5855,-3.48043 -12.5506,-14.50003 -14.4283,-14.50003 -0.6994,0 -1.4217,-0.3529 -1.6051,-0.7842 -0.5592,-1.3155 -15.3401,-8.2158 -17.5989,-8.2158 -1.164,0 -2.3945,-0.45 -2.7344,-1 -0.3399,-0.55 -1.7165,-1 -3.059,-1 -1.3426,0 -2.441,-0.45 -2.441,-1 0,-0.55 -1.35,-1 -3,-1 -1.65,0 -3,-0.45 -3,-1 0,-0.55 -1.3234,-1 -2.941,-1 -1.6175,0 -3.2191,-0.45 -3.559,-1 -0.3399,-0.55 -1.9149,-1 -3.5,-1 -1.5851,0 -3.1601,-0.45 -3.5,-1 -0.3399,-0.55 -1.9149,-1 -3.5,-1 -1.5851,0 -3.1601,-0.45 -3.5,-1 -0.3399,-0.55 -1.9149,-1 -3.5,-1 -1.5851,0 -3.1765,-0.4766 -3.5365,-1.059 -0.36,-0.5825 -1.624,-0.9339 -2.809,-0.7809 -1.185,0.153 -2.7427,-0.088 -3.4616,-0.5353 -1.3235,-0.8236 -2.6748,-1.1436 -9.4522,-2.2385 -2.0676,-0.334 -4.0066,-1.0076 -4.309,-1.4968 -0.3023,-0.4892 -1.8466,-0.8895 -3.4317,-0.8895 -1.5851,0 -3.1601,-0.45 -3.5,-1 -0.3399,-0.55 -1.6899,-1 -3,-1 -1.3101,0 -2.6601,-0.45 -3,-1 -0.3399,-0.55 -1.9149,-1 -3.5,-1 -1.5851,0 -3.1601,-0.45 -3.5,-1 -0.3399,-0.55 -1.4976,-1 -2.5726,-1 -1.075,0 -2.7359,-0.4126 -3.691,-0.9169 -0.955,-0.5043 -4.4364,-1.6637 -7.7364,-2.5764 -3.3,-0.9127 -7.0125,-2.0751 -8.25,-2.5831 -1.2375,-0.508 -3.2625,-1.3166 -4.5,-1.7969 -3.2276,-1.2528 -10.1017,-4.3635 -18.8246,-8.5186 -4.166,-1.9844 -7.856,-3.6081 -8.1999,-3.6081 -0.3439,0 -2.6256,-1.35 -5.0704,-3 -2.4448,-1.65 -4.9424,-3 -5.5501,-3 -0.6078,0 -1.105,-0.374 -1.105,-0.831 0,-0.4571 -1.2375,-1.4689 -2.75,-2.2484 -1.5125,-0.7796 -2.975,-1.6669 -3.25,-1.9719 -0.275,-0.3049 -2.2892,-1.8806 -4.4759,-3.5016 -4.5817,-3.3962 -19.5241,-18.2267 -19.5241,-19.378 0,-0.4248 -1.3539,-2.1892 -3.0087,-3.9208 -1.6548,-1.7316 -2.71,-3.1483 -2.345,-3.1483 0.365,0 -0.028,-0.7875 -0.873,-1.75 -0.8452,-0.9625 -1.8453,-2.7625 -2.2224,-4 -0.3771,-1.2375 -1.1054,-2.25 -1.6183,-2.25 -0.5129,0 -0.9326,-0.9 -0.9326,-2 0,-1.1 -0.45,-2 -1,-2 -0.55,0 -1,-1.125 -1,-2.5 0,-1.375 -0.45,-2.5 -1,-2.5 -0.55,0 -1,-0.8734 -1,-1.941 0,-1.0675 -0.45,-2.2191 -1,-2.559 -0.55,-0.3399 -1,-1.6899 -1,-3 0,-1.3101 -0.4025,-2.6307 -0.8944,-2.9347 -0.4919,-0.304 -1.1417,-2.4681 -1.444,-4.809 -0.3024,-2.341 -0.8653,-6.2813 -1.251,-8.7563 -0.9094,-5.83486 -0.9094,-38.16502 0,-43.99996 0.3857,-2.475 0.9486,-6.41532 1.251,-8.75627 0.3023,-2.34095 0.9521,-4.505 1.444,-4.80901 0.4919,-0.30402 0.8944,-1.62464 0.8944,-2.93472 0,-1.31008 0.45,-2.66008 1,-3 0.55,-0.33992 1,-1.71648 1,-3.05902 0,-1.34254 0.45,-2.44098 1,-2.44098 0.55,0 1,-0.9 1,-2 0,-1.1 0.45,-2 1,-2 0.55,0 1,-0.9 1,-2 0,-1.1 0.45,-2 1,-2 0.55,0 1,-0.9 1,-2 0,-1.1 0.3375,-2.00516 0.75,-2.01147 0.4125,-0.006 1.6416,-1.91881 2.7314,-4.25 1.0898,-2.33119 2.7773,-4.96631 3.75,-5.85583 0.9727,-0.88951 1.7686,-1.90568 1.7686,-2.25817 0,-1.13462 11.6658,-14.57542 14.6312,-16.85745 1.5778,-1.21421 4.6688,-3.90368 6.8688,-5.97659 2.2,-2.07291 4.3972,-3.77378 4.8827,-3.77971 0.4855,-0.006 1.6177,-0.79828 2.5159,-1.76078 0.8983,-0.9625 3.2011,-2.59483 5.1173,-3.62739 1.9163,-1.03257 5.0591,-2.78964 6.9841,-3.90459 7.7476,-4.48737 14.2781,-7.71802 15.6015,-7.71802 0.7692,0 1.3985,-0.39375 1.3985,-0.875 0,-0.78829 5.524,-2.39821 6.3511,-1.85096 0.1878,0.12428 0.9732,-0.25548 1.7452,-0.84391 0.772,-0.58843 3.4287,-1.64479 5.9037,-2.34747 2.475,-0.70267 5.2814,-1.68373 6.2364,-2.18012 0.9551,-0.4964 2.841,-0.90254 4.191,-0.90254 1.35,0 2.7327,-0.45 3.0726,-1 0.3399,-0.55 1.9149,-1 3.5,-1 1.5851,0 3.1601,-0.45 3.5,-1 0.3399,-0.55 2.5265,-1 4.859,-1 2.3326,0 4.6685,-0.41041 5.191,-0.91201 1.1442,-1.09845 9.4258,-2.03025 22.95,-2.58221 5.5,-0.22447 12.3259,-0.94319 15.1686,-1.59715 3.2655,-0.7512 7.8681,-0.93078 12.5,-0.48769 9.5527,0.91381 24.7687,2.39862 32.3314,3.15497 3.3,0.33004 6.4275,1.01047 6.95,1.51208 0.5225,0.5016 2.6334,0.91201 4.691,0.91201 2.0575,0 4.0191,0.45 4.359,1 0.3399,0.55 2.1399,1 4,1 1.8601,0 3.6601,0.45 4,1 0.3399,0.55 1.6899,1 3,1 1.3101,0 2.6601,0.45 3,1 0.3399,0.55 1.6899,1 3,1 1.3101,0 2.6242,0.39188 2.9202,0.87084 0.4674,0.75626 5.0794,2.2298 8.0798,2.58151 0.55,0.0645 3.7,1.38623 7,2.93724 3.3,1.551 7.125,3.32159 8.5,3.93464 1.375,0.61304 4.3,2.28341 6.5,3.71193 2.2,1.42852 5.575,3.36722 7.5,4.30822 3.8958,1.90439 7.2403,3.87084 8,4.7038 0.275,0.3015 2.075,1.63927 4,2.97282 1.925,1.33355 4.3724,3.22437 5.4386,4.20182 1.0662,0.97745 2.3272,1.77718 2.8021,1.77718 1.0591,0 22.9487,22.17006 27.6885,28.04319 1.886,2.33702 5.5693,7.52751 8.185,11.53442 5.0604,7.75174 5.0632,7.70479 -0.6142,10.46217 -1.65,0.80137 -3.225,1.70302 -3.5,2.00368 -0.275,0.30066 -5,2.77638 -10.5,5.5016 -5.5,2.72522 -10.225,5.18902 -10.5,5.47512 -0.275,0.28611 -3.65,2.07702 -7.5,3.97982 -3.85,1.9028 -7.225,3.707 -7.5,4.00935 -0.275,0.30234 -4.1,2.33408 -8.5,4.51497 -4.4,2.18089 -8.225,4.20168 -8.5,4.49065 -0.275,0.28897 -3.65,2.08934 -7.5,4.00083 -3.85,1.91149 -7.15,3.8149 -7.3333,4.2298 -0.1834,0.4149 -1.1959,0.7544 -2.25,0.7544 -1.0542,0 -1.9167,0.45 -1.9167,1 0,0.55 -0.3375,0.9056 -0.75,0.7902 -0.7824,-0.2189 -8.3785,3.1954 -9.25,4.1577 -1.0686,1.18 -5.0473,3.0521 -6.4864,3.0521 -0.8325,0 -1.5136,-0.5901 -1.5136,-1.3114 0,-0.7213 -0.9094,-2.2876 -2.0209,-3.4806 -1.1114,-1.193 -2.0303,-2.5154 -2.042,-2.9386 -0.064,-2.3339 -14.4848,-18.2694 -16.5326,-18.2694 -0.7101,0 -1.8814,-0.7875 -2.6029,-1.75 -1.4127,-1.8846 -6.2117,-5.02765 -9.0516,-5.92828 -0.9625,-0.30524 -1.75,-0.89625 -1.75,-1.31335 0,-0.61384 -3.5382,-1.79778 -7.1667,-2.39808 -0.3666,-0.0607 -1.0041,-0.44779 -1.4166,-0.86029 -0.4125,-0.4125 -1.7735,-0.75 -3.0243,-0.75 -1.2509,0 -2.5525,-0.45 -2.8924,-1 -0.3399,-0.55 -1.7461,-1 -3.1248,-1 -1.3787,0 -3.4698,-0.51545 -4.647,-1.14544 -2.895,-1.54937 -39.4657,-1.51709 -41.019,0.0362 -0.61,0.61008 -2.1503,1.10923 -3.4228,1.10923 -1.2724,0 -3.0949,0.41715 -4.05,0.927 -1.6731,0.89323 -3.915,1.68551 -5.4902,1.94028 -1.8205,0.29443 -10.3431,6.98079 -11.2852,8.8538 -0.5715,1.13609 -1.6391,2.78861 -2.3725,3.67227 -0.7334,0.88366 -0.9633,1.60665 -0.5109,1.60665 0.4523,0 0.2824,0.54 -0.3776,1.2 -1.4933,1.49333 -1.6782,19.80001 -0.2,19.80001 0.55,0 1.0022,0.7875 1.0048,1.75 0.01,3.0147 13.8983,15.23256 19.2452,16.92826 0.9625,0.3052 1.75,0.9525 1.75,1.4383 0,0.4859 0.6811,0.8834 1.5136,0.8834 0.8324,0 2.2949,0.3975 3.25,0.8833 0.955,0.4859 3.0864,1.4384 4.7364,2.1167 1.65,0.6783 3.7814,1.6308 4.7364,2.1167 0.9551,0.4858 2.3659,0.8833 3.1352,0.8833 1.7731,0 11.5654,2.8903 13.8648,4.0923 0.9551,0.4992 2.841,0.9077 4.191,0.9077 1.35,0 2.7327,0.45 3.0726,1 0.3399,0.55 1.9149,1 3.5,1 1.5851,0 3.1601,0.45 3.5,1 0.3399,0.55 1.9149,1 3.5,1 1.5851,0 3.1601,0.45 3.5,1 0.3399,0.55 2.1399,1 4,1 1.8601,0 3.6601,0.45 4,1 0.3399,0.55 1.8665,1 3.3924,1 1.5258,0 3.0958,0.3216 3.4889,0.7146 0.393,0.393 1.7055,0.8435 2.9166,1.001 6.5997,0.8584 9.779,1.5998 10.2704,2.3949 0.3023,0.4892 1.8466,0.8895 3.4317,0.8895 1.5851,0 3.1601,0.45 3.5,1 0.3399,0.55 1.6899,1 3,1 1.3101,0 2.6601,0.45 3,1 0.3399,0.55 1.9149,1 3.5,1 1.5851,0 3.1601,0.45 3.5,1 0.3399,0.55 1.7165,1 3.059,1 1.3426,0 2.441,0.45 2.441,1 0,0.55 1.0984,1 2.441,1 1.3425,0 2.7191,0.45 3.059,1 0.3399,0.55 1.6899,1 3,1 1.3101,0 2.679,0.4807 3.0421,1.0682 0.3631,0.5875 1.2897,0.8266 2.0591,0.5314 0.7693,-0.2953 1.3988,-0.101 1.3988,0.4318 0,0.5327 0.8164,0.9686 1.8142,0.9686 0.9978,0 7.951,3.0968 15.4515,6.8818 7.5006,3.785 13.8842,6.635 14.1859,6.3333 0.3016,-0.3016 0.5484,-0.023 0.5484,0.6182 0,0.6417 0.6053,1.1667 1.345,1.1667 0.7398,0 2.1595,0.9 3.155,2 0.9955,1.1 2.1852,2 2.6438,2 3.041,0 31.8562,26.7363 31.8562,29.5579 0,0.6585 0.6657,1.7497 1.4793,2.4249 0.8135,0.6752 2.1051,2.4178 2.8701,3.8724 6.1009,11.6013 9.1589,17.7944 9.2064,18.6448 0.087,1.5686 1.5128,6.7963 2.4539,9 0.9603,2.2489 1.6133,5.6318 3.1849,16.5 1.7808,12.31513 0.9338,41.16633 -1.2755,43.45003 -0.5055,0.5225 -0.9191,2.6334 -0.9191,4.691 0,2.0575 -0.3981,3.987 -0.8847,4.2877 -0.7763,0.4798 -1.1604,1.8213 -2.4545,8.5713 -0.1581,0.825 -1.0924,3.3 -2.0761,5.5 -0.9837,2.2 -2.2915,5.125 -2.9061,6.5 -0.6146,1.375 -2.3687,4.3811 -3.898,6.6802 -1.5293,2.2991 -2.7806,4.5918 -2.7806,5.095 0,0.503 -0.9,1.7292 -2,2.7247 -1.1,0.9955 -2,2.3579 -2,3.0276 0,1.4967 -23.8162,25.4724 -25.303,25.4724 -0.5875,0 -1.9971,0.8295 -3.1325,1.8433 -2.5811,2.3045 -15.4936,9.955 -21.8145,12.9249 -14.4912,6.8087 -15.8335,7.3123 -23.5122,8.8213 -1.7943,0.3526 -3.5083,1.0392 -3.8091,1.5258 -0.3007,0.4866 -1.8702,0.8847 -3.4877,0.8847 -1.6176,0 -2.941,0.45 -2.941,1 0,0.55 -1.485,1 -3.3,1 -1.815,0 -3.7275,0.4039 -4.25,0.8976 -0.5225,0.4936 -2.75,1.1556 -4.95,1.4709 -2.2,0.3153 -6.925,1.0582 -10.5,1.6509 -3.575,0.5927 -10.2878,1.3933 -14.9174,1.7791 -5.3072,0.4423 -8.5711,1.1634 -8.8333,1.9515 -0.3176,0.9544 -6.1711,1.25 -24.7493,1.25 -18.5786,0 -24.4315,-0.2956 -24.7485,-1.25 z m 438.8869,-0.25 c -0.4406,-1.1482 -2.3284,-1.5 -8.048,-1.5 -4.1098,0 -7.7505,-0.45 -8.0904,-1 -0.3399,-0.55 -2.8149,-1 -5.5,-1 -2.6851,0 -5.1601,-0.45 -5.5,-1 -0.3399,-0.55 -2.1399,-1 -4,-1 -1.8601,0 -3.6601,-0.45 -4,-1 -0.3399,-0.55 -2.1399,-1 -4,-1 -1.8601,0 -3.6601,-0.45 -4,-1 -0.3399,-0.55 -1.9149,-1 -3.5,-1 -1.5851,0 -3.1601,-0.45 -3.5,-1 -0.3399,-0.55 -1.6899,-1 -3,-1 -1.3101,0 -2.679,-0.4807 -3.0421,-1.0682 -0.3631,-0.5875 -1.2753,-0.8321 -2.027,-0.5436 -0.7518,0.2884 -1.6328,0.094 -1.9579,-0.4319 -0.3251,-0.526 -1.4706,-0.9563 -2.5456,-0.9563 -1.075,0 -2.7359,-0.4148 -3.691,-0.9218 -6.5147,-3.4586 -29.2528,-14.0782 -30.1434,-14.0782 -0.6012,0 -1.093,-0.45 -1.093,-1 0,-0.55 -0.7347,-1 -1.6327,-1 -0.898,0 -2.3605,-0.7906 -3.25,-1.7568 -0.8895,-0.9663 -2.9673,-2.4191 -4.6173,-3.2285 -1.65,-0.8093 -4.125,-2.3052 -5.5,-3.3242 -3.821,-2.8316 -14.9104,-11.2677 -20.5,-15.5951 -5.5938,-4.3307 -24.1991,-23.4942 -29.3423,-30.2228 -7.663,-10.0251 -12.1373,-16.4349 -12.1472,-17.4017 -0.01,-0.5661 -0.9105,-1.678 -2.0105,-2.4708 -1.1,-0.7928 -2,-2.2422 -2,-3.2208 0,-0.9785 -0.3491,-1.7792 -0.7759,-1.7792 -0.4267,0 -1.6642,-2.0207 -2.75,-4.4905 -1.0857,-2.4698 -2.3116,-4.4948 -2.7241,-4.5 -0.4125,-0.01 -0.75,-0.9095 -0.75,-2.0095 0,-1.1 -0.45,-2 -1,-2 -0.55,0 -1,-0.9 -1,-2 0,-1.1 -0.45,-2 -1,-2 -0.55,0 -1,-0.9 -1,-2 0,-1.1 -0.45,-2 -1,-2 -0.55,0 -1,-0.8734 -1,-1.941 0,-1.0675 -0.45,-2.2191 -1,-2.559 -0.55,-0.3399 -1,-1.4915 -1,-2.559 0,-1.0676 -0.45,-1.941 -1,-1.941 -0.55,0 -1,-1.0984 -1,-2.44103 0,-1.3425 -0.4303,-2.7069 -0.9563,-3.032 -0.526,-0.3251 -0.7203,-1.2061 -0.4319,-1.9579 0.2885,-0.7517 0.044,-1.6639 -0.5436,-2.027 -0.5875,-0.3631 -1.0682,-1.7586 -1.0682,-3.1011 0,-1.3426 -0.45,-2.441 -1,-2.441 -0.55,0 -1,-1.3234 -1,-2.941 0,-1.6175 -0.45,-3.2191 -1,-3.559 -0.55,-0.3399 -1,-1.9149 -1,-3.5 0,-1.5851 -0.45,-3.1601 -1,-3.5 -0.55,-0.3399 -1,-2.3915 -1,-4.559 0,-2.1676 -0.45,-3.941 -1,-3.941 -0.55,0 -1,-2.16 -1,-4.8 0,-2.64 -0.4059,-5.2275 -0.9021,-5.75 -2.3942,-2.5214 -3.2435,-48.8617 -1.1812,-64.45 0.6186,-4.675 1.382,-10.8625 1.6965,-13.75 0.3145,-2.8875 0.9803,-5.25 1.4793,-5.25 0.4991,0 0.9075,-2.025 0.9075,-4.5 0,-2.475 0.45,-4.5 1,-4.5 0.55,0 1,-1.5484 1,-3.441 0,-1.8925 0.45,-3.7191 1,-4.059 0.55,-0.3399 1,-1.4976 1,-2.5726 0,-1.075 0.4052,-2.7359 0.9003,-3.691 0.4952,-0.95496 1.6797,-4.43636 2.6322,-7.73636 0.9525,-3.3 2.5723,-7.73 3.5996,-9.8445 1.0274,-2.1145 1.8679,-4.702 1.8679,-5.75 0,-1.04803 0.45,-1.9055 1,-1.9055 0.55,0 1,-0.9 1,-2 0,-1.1 0.45,-2 1,-2 0.55,0 1,-0.8625 1,-1.91667 0,-1.05416 0.354,-2.06666 0.7868,-2.25 0.4327,-0.18333 2.0499,-2.80833 3.5937,-5.83333 5.4781,-10.73388 7.3619,-14.0579 8.9808,-15.84677 0.9013,-0.99589 1.6387,-2.33778 1.6387,-2.98197 0,-0.64419 0.353,-1.17126 0.7844,-1.17126 0.4314,0 1.635,-1.4625 2.6747,-3.25 1.0396,-1.7875 2.1708,-3.475 2.5138,-3.75 0.3429,-0.275 1.721,-2.075 3.0624,-4 1.3415,-1.925 4.5777,-5.75 7.1916,-8.5 2.6139,-2.75 4.7572,-5.338 4.7628,-5.75111 0.014,-0.99094 7.5846,-8.32367 12.0103,-11.63231 1.925,-1.43912 5.1522,-4.30408 7.1716,-6.36658 2.0194,-2.0625 4.049,-3.75 4.5102,-3.75 0.4613,0 1.959,-1.0125 3.3284,-2.25 1.3694,-1.2375 3.7273,-2.88854 5.2398,-3.66898 1.5125,-0.78044 2.75,-1.79294 2.75,-2.25 0,-0.45706 0.6199,-0.83102 1.3776,-0.83102 0.7576,0 1.9133,-0.64554 2.5681,-1.43454 0.6548,-0.78899 2.8474,-2.31231 4.8724,-3.38515 2.0251,-1.07284 5.7069,-3.0148 8.1819,-4.31547 2.475,-1.30066 4.65,-2.70234 4.8333,-3.11484 0.1834,-0.4125 1.1959,-0.75 2.25,-0.75 1.0542,0 1.9167,-0.45 1.9167,-1 0,-0.55 0.9,-1 2,-1 1.1,0 2,-0.45 2,-1 0,-0.55 0.9,-1 2,-1 1.1,0 2,-0.45 2,-1 0,-0.55 0.8734,-1 1.941,-1 1.0675,0 2.1949,-0.41084 2.5052,-0.91299 0.3104,-0.50214 2.3596,-1.2163 4.5538,-1.58701 2.1942,-0.37071 4.2434,-1.08487 4.5538,-1.58701 0.3103,-0.50215 1.6361,-0.91299 2.9462,-0.91299 1.3101,0 2.6601,-0.45 3,-1 0.3399,-0.55 1.6899,-1 3,-1 1.3101,0 2.6601,-0.45 3,-1 0.3399,-0.55 1.9149,-1 3.5,-1 1.5851,0 3.1601,-0.45 3.5,-1 0.3399,-0.55 2.1399,-1 4,-1 1.8601,0 3.6601,-0.45 4,-1 0.3399,-0.55 2.3015,-1 4.359,-1 2.0576,0 4.1685,-0.40852 4.691,-0.90781 1.1347,-1.08435 8.6576,-2.01855 20.95,-2.6016 4.95,-0.23479 10.6037,-0.93559 12.5638,-1.55734 3.6606,-1.16117 13.9912,-0.8408 33.4362,1.03692 17.3686,1.67722 20.9748,2.19014 21.95,3.12202 0.5225,0.49929 2.6334,0.90781 4.691,0.90781 2.0575,0 4.0191,0.45 4.359,1 0.3399,0.55 2.1665,1 4.059,1 1.8926,0 3.441,0.45 3.441,1 0,0.55 1.3234,1 2.941,1 1.6175,0 3.2191,0.45 3.559,1 0.3399,0.55 1.6899,1 3,1 1.3101,0 2.6601,0.45 3,1 0.3399,0.55 1.6899,1 3,1 1.3101,0 2.6387,0.41538 2.9525,0.92306 0.3137,0.50769 2.013,1.23991 3.7761,1.62716 1.7632,0.38725 3.8955,1.04762 4.7386,1.4675 0.843,0.41987 3.7828,1.82515 6.5328,3.12284 2.75,1.29769 5.15,2.69694 5.3333,3.10944 0.1834,0.4125 1.1959,0.75 2.25,0.75 1.0542,0 1.9167,0.34384 1.9167,0.7641 0,0.42025 1.6875,1.56796 3.75,2.55045 2.0625,0.98249 4.65,2.33534 5.75,3.00633 5.0235,3.0643 11.0457,7.03297 11.5,7.57861 0.275,0.33028 1.4,1.1695 2.5,1.86493 5.5167,3.48772 7.8272,5.21705 11.4556,8.57419 2.1765,2.01376 4.2535,3.66139 4.6156,3.66139 1.6104,0 29.4288,29.99074 29.4288,31.7269 0,0.56552 0.6871,1.59842 1.5268,2.29534 1.4586,1.21054 7.4732,9.64326 7.4732,10.47776 0,0.21985 1.35,2.40006 3,4.84489 1.65,2.44484 3,4.9424 3,5.55013 0,0.60774 0.45,1.10498 1,1.10498 0.55,0 1,0.8625 1,1.91667 0,1.05416 0.3681,2.06666 0.818,2.25 0.45,0.18333 2.5324,3.93333 4.6277,8.33333 2.0953,4.4 4.6521,9.73 5.6819,11.8445 1.0298,2.1145 1.8724,4.702 1.8724,5.75 0,1.048 0.3375,1.9078 0.75,1.9105 0.4125,0 1.8367,3.4903 3.1648,7.75 1.3282,4.25976 2.7984,8.25046 3.2673,8.86826 0.4688,0.6177 0.5693,1.861 0.2233,2.7627 -0.346,0.9017 -0.1821,2.1962 0.3642,2.8767 0.9327,1.1617 1.4249,3.3629 2.7924,12.4873 0.3091,2.0625 0.964,4.65 1.4553,5.75 1.5316,3.4291 2.1448,13.0672 2.6034,40.918 0.2924,17.7532 0.092,27.2694 -0.5887,27.95 -0.5676,0.5676 -1.032,2.2309 -1.032,3.6961 v 2.6642 l -163.75,-0.1142 -163.75,-0.1141 -0.3134,3.25 c -0.176,1.8256 0.1527,3.25 0.75,3.25 0.5849,0 1.0634,1.0984 1.0634,2.441 0,1.3425 0.45,2.7191 1,3.059 0.55,0.3399 1,1.4976 1,2.5726 0,1.075 0.4213,2.7359 0.9362,3.691 0.515,0.955 2.1859,4.4364 3.7133,7.7364 1.5273,3.3 3.131,6.15 3.5637,6.3333 0.4328,0.1834 0.7868,0.9011 0.7868,1.595 0,0.694 0.9,2.0762 2,3.0717 1.1,0.9955 2,2.331 2,2.9679 0,0.6369 1.35,2.4513 3,4.0321 1.65,1.5808 3,3.3666 3,3.9684 0,1.31363 9.7172,10.74573 16,15.53053 2.475,1.8849 4.65,3.7812 4.8333,4.2141 0.1834,0.4328 0.9709,0.787 1.75,0.787 0.7792,0 1.4167,0.45 1.4167,1 0,0.55 0.493,1 1.0956,1 0.6026,0 2.3409,0.8867 3.8629,1.9705 1.522,1.0837 3.054,1.6837 3.4044,1.3333 0.3504,-0.3504 0.6371,-0.1121 0.6371,0.5295 0,0.6417 0.9,1.1667 2,1.1667 1.1,0 2,0.45 2,1 0,0.55 0.9,1 2,1 1.1,0 2,0.45 2,1 0,0.55 1.0984,1 2.441,1 1.3425,0 2.7191,0.45 3.059,1 0.3399,0.55 1.4915,1 2.559,1 1.0676,0 1.941,0.45 1.941,1 0,0.55 1.3234,1 2.941,1 1.6175,0 3.1884,0.4003 3.4907,0.8895 0.3024,0.4892 2.0164,1.1418 3.809,1.4502 1.7926,0.3084 6.1843,1.1049 9.7593,1.7701 3.8418,0.7147 14.6791,1.1706 26.5,1.1147 20.8034,-0.098 31.1547,-0.8567 32.0775,-2.3499 0.2973,-0.481 2.0624,-0.8746 3.9225,-0.8746 1.8601,0 3.6601,-0.45 4,-1 0.3399,-0.55 1.6899,-1 3,-1 1.3101,0 2.6601,-0.45 3,-1 0.3399,-0.55 1.4976,-1 2.5726,-1 1.075,0 2.7359,-0.3975 3.691,-0.8833 0.955,-0.4859 2.8614,-1.3419 4.2364,-1.9023 8.6843,-3.5395 21.1242,-10.1119 23.9082,-12.6313 0.9621,-0.8707 2.1135,-1.5831 2.5587,-1.5831 0.7499,0 3.5148,-2.3188 14.1133,-11.836 2.2441,-2.0152 4.8776,-4.89273 5.8522,-6.39453 1.5373,-2.3687 2.0566,-2.5794 3.9198,-1.59 2.2234,1.1806 7.7291,5.57933 15.1084,12.07053 2.3447,2.0625 4.6839,3.75 5.1983,3.75 0.5144,0 2.6929,1.8 4.8411,4 2.1482,2.2 4.3243,4 4.8357,4 0.5113,0 1.6575,0.8106 2.547,1.8014 0.8895,0.9908 3.4173,3.1269 5.6173,4.7468 2.2,1.62 5.193,4.1843 6.6512,5.6986 1.4582,1.5143 3.0672,2.7532 3.5757,2.7532 0.5085,0 2.0077,1.1531 3.3317,2.5624 1.324,1.4093 3.99,3.5377 5.9243,4.7297 1.9344,1.1921 4.8671,3.4338 6.5171,4.9817 1.65,1.5479 4.6675,4.0795 6.7056,5.6257 l 3.7056,2.8114 -2.9556,2.8316 c -1.6256,1.5574 -2.9556,3.3898 -2.9556,4.0719 0,1.6045 -26.9634,28.6595 -31.8042,31.9121 -2.0327,1.3659 -5.7208,4.0562 -8.1958,5.9785 -2.475,1.9223 -5.175,3.8099 -6,4.1945 -0.825,0.3847 -2.3724,1.5096 -3.4386,2.4999 -1.0662,0.9903 -2.5287,1.8005 -3.25,1.8005 -0.7213,0 -1.3114,0.45 -1.3114,1 0,0.55 -0.9,1 -2,1 -1.1,0 -2,0.3491 -2,0.7759 0,0.4267 -2.0207,1.6642 -4.4905,2.75 -2.4698,1.0857 -4.4948,2.3116 -4.5,2.7241 -0.01,0.4125 -0.9095,0.75 -2.0095,0.75 -1.1,0 -2,0.45 -2,1 0,0.55 -0.9,1 -2,1 -1.1,0 -2,0.45 -2,1 0,0.55 -1.125,1 -2.5,1 -1.375,0 -2.5,0.45 -2.5,1 0,0.55 -0.9,1 -2,1 -1.1,0 -2,0.45 -2,1 0,0.55 -1.0984,1 -2.441,1 -1.3425,0 -2.6949,0.4108 -3.0052,0.913 -0.3104,0.5021 -2.3596,1.2163 -4.5538,1.587 -2.1942,0.3707 -4.2434,1.0849 -4.5538,1.587 -0.3103,0.5022 -1.6361,0.913 -2.9462,0.913 -1.3101,0 -2.6601,0.45 -3,1 -0.3399,0.55 -1.9149,1 -3.5,1 -1.5851,0 -3.1601,0.45 -3.5,1 -0.3399,0.55 -2.1665,1 -4.059,1 -1.8926,0 -3.441,0.45 -3.441,1 0,0.55 -1.7734,1 -3.941,1 -2.1675,0 -4.2191,0.45 -4.559,1 -0.3399,0.55 -2.8149,1 -5.5,1 -2.6851,0 -5.1601,0.45 -5.5,1 -0.3399,0.55 -3.9806,1 -8.0904,1 -5.7196,0 -7.6074,0.3518 -8.048,1.5 -0.4848,1.2634 -3.6965,1.5 -20.3616,1.5 -16.6651,0 -19.8768,-0.2366 -20.3616,-1.5 z M 2377.989,873.27617 c 0.8888,-1.6607 0.8737,-3.1376 -0.064,-6.2773 -2.102,-7.037 -3.4577,-10.0845 -9.115,-20.48926 -3.1755,-5.8405 -13.35,-17.6562 -19.4602,-22.59928 -2.7077,-2.19059 -5.0732,-4.32809 -5.2565,-4.75 -0.1834,-0.42192 -0.9158,-0.76712 -1.6276,-0.76712 -0.7118,0 -1.83,-0.64554 -2.4848,-1.43454 -0.6548,-0.78899 -2.9269,-2.33956 -5.0491,-3.44571 -2.1221,-1.10615 -4.679,-2.43636 -5.6818,-2.95602 -1.0029,-0.51967 -4.0734,-1.94335 -6.8234,-3.16373 -2.75,-1.22038 -5.7814,-2.61963 -6.7364,-3.10944 -0.9553,-0.48981 -2.4239,-0.89056 -3.2638,-0.89056 -0.8399,0 -2.3085,-0.40614 -3.2636,-0.90254 -2.5459,-1.32327 -9.596,-3.29792 -10.7451,-3.00957 -0.5452,0.13681 -2.5663,-0.0438 -4.4913,-0.40144 -5.8978,-1.09562 -22.9602,-1.35162 -33.5,-0.50263 -14.8124,1.19314 -15.2704,1.25198 -16.084,2.06618 -0.4121,0.4125 -1.9978,0.75 -3.5236,0.75 -1.5259,0 -3.0525,0.45 -3.3924,1 -0.3399,0.55 -1.4976,1 -2.5726,1 -1.075,0 -2.7359,0.40064 -3.691,0.89031 -0.955,0.48967 -6.0234,2.99636 -11.2632,5.57043 -14.2393,6.99523 -30.3366,19.47316 -36.3238,28.15666 -9.8864,14.33846 -12.5157,18.39846 -14.172,21.88256 -1.0458,2.2 -1.9574,4.225 -2.0258,4.5 -0.3214,1.2924 -1.6895,4.6722 -2.5246,6.2364 -0.5098,0.9551 -0.927,2.1865 -0.927,2.7366 0,0.6603 33.1774,0.9898 97.6227,0.9696 53.6924,-0.017 97.7819,0.1287 97.9766,0.3233 0.1946,0.1947 4.167,0.4518 8.8275,0.5714 7.7884,0.1999 8.5675,0.042 9.6358,-1.9543 z m 583.5758,269.61693 c -0.4228,-1.1016 -2.1617,-1.5 -6.548,-1.5 -3.2848,0 -6.2505,-0.45 -6.5904,-1 -0.3399,-0.55 -2.5899,-1 -5,-1 -2.4101,0 -4.6601,-0.45 -5,-1 -0.3399,-0.55 -1.9149,-1 -3.5,-1 -1.5851,0 -3.1601,-0.45 -3.5,-1 -0.3399,-0.55 -1.9149,-1 -3.5,-1 -1.5851,0 -3.1601,-0.45 -3.5,-1 -0.3399,-0.55 -1.6899,-1 -3,-1 -1.3101,0 -2.6242,-0.3919 -2.9202,-0.8708 -0.296,-0.479 -2.01,-1.2169 -3.809,-1.6397 -1.7989,-0.4229 -3.4958,-0.8574 -3.7708,-0.9656 -0.275,-0.1081 -1.4,-0.5361 -2.5,-0.9509 -4.6201,-1.7425 -6.2486,-2.4378 -11,-4.6963 -2.75,-1.3072 -5.15,-2.7142 -5.3333,-3.1267 -0.1834,-0.4125 -1.1584,-0.75 -2.1667,-0.75 -1.0083,0 -1.9833,-0.3375 -2.1667,-0.75 -0.1833,-0.4125 -2.3583,-1.8142 -4.8333,-3.1148 -2.475,-1.3007 -6.1568,-3.2427 -8.1819,-4.3155 -2.025,-1.0728 -4.2176,-2.5962 -4.8724,-3.3852 -0.6548,-0.789 -1.8105,-1.4345 -2.5681,-1.4345 -0.7577,0 -1.3776,-0.3987 -1.3776,-0.8861 0,-0.4873 -1.4862,-1.5913 -3.3028,-2.4533 -1.8165,-0.862 -4.1362,-2.4883 -5.155,-3.6139 -1.0187,-1.1257 -2.2769,-2.0467 -2.796,-2.0467 -0.5191,0 -2.1368,-1.2549 -3.595,-2.7886 -1.4582,-1.5338 -4.2262,-3.8879 -6.1512,-5.2313 -1.925,-1.3434 -7.5584,-6.501 -12.5187,-11.4614 -4.9604,-4.9602 -10.118,-10.5936 -11.4614,-12.5186 -1.3434,-1.925 -3.6975,-4.693 -5.2313,-6.1512 -1.5337,-1.4582 -2.7886,-3.0759 -2.7886,-3.595 0,-0.5191 -0.921,-1.7773 -2.0467,-2.796 -1.1256,-1.0188 -2.7519,-3.3385 -3.6139,-5.155 -0.862,-1.8166 -1.966,-3.3028 -2.4533,-3.3028 -0.4874,0 -0.8861,-0.5271 -0.8861,-1.1713 0,-0.6442 -0.6173,-1.8817 -1.3718,-2.75 -1.3363,-1.5378 -6.9464,-11.3241 -9.0696,-15.8209 -0.5822,-1.2332 -1.3961,-2.2457 -1.8086,-2.25 -0.4125,0 -0.75,-0.6403 -0.75,-1.4133 0,-0.773 -0.8579,-3.1355 -1.9064,-5.25 -2.9973,-6.0447 -5.4868,-11.7524 -5.6022,-12.8445 -0.1333,-1.2608 -1.3561,-4.47303 -2.5644,-6.73643 -0.5098,-0.9551 -0.927,-2.616 -0.927,-3.691 0,-1.075 -0.45,-2.2327 -1,-2.5726 -0.55,-0.3399 -1,-1.9415 -1,-3.559 0,-1.6176 -0.45,-2.941 -1,-2.941 -0.55,0 -1,-1.5484 -1,-3.441 0,-1.8925 -0.45,-3.7191 -1,-4.059 -0.55,-0.3399 -1,-2.0765 -1,-3.859 0,-1.7826 -0.4064,-3.6685 -0.903,-4.191 -0.897,-0.9436 -1.2464,-3.1343 -3.1026,-19.45 -1.236,-10.8639 -1.2285,-42.9461 0.013,-54 1.8073,-16.0961 2.1896,-18.5028 3.09,-19.45 0.4966,-0.5225 0.903,-2.6334 0.903,-4.691 0,-2.0575 0.45,-4.0191 1,-4.359 0.55,-0.3399 1,-1.9149 1,-3.5 0,-1.5851 0.45,-3.1601 1,-3.5 0.55,-0.3399 1,-1.9149 1,-3.5 0,-1.5851 0.45,-3.1601 1,-3.5 0.55,-0.3399 1,-1.7165 1,-3.059 0,-1.3426 0.45,-2.44096 1,-2.44096 0.55,0 1,-1.0984 1,-2.441 0,-1.3425 0.399,-2.6876 0.8866,-2.9889 0.4877,-0.3014 1.1716,-2.0667 1.5198,-3.9229 0.5281,-2.8151 9.89,-22.55227 13.1138,-27.6472 0.5221,-0.825 0.971,-1.725 0.9977,-2 0.027,-0.275 1.2711,-2.40356 2.7653,-4.73013 1.4942,-2.32657 2.7168,-4.61932 2.7168,-5.09501 0,-0.47569 0.9,-1.67937 2,-2.67486 1.1,-0.99549 2,-2.33679 2,-2.98067 0,-0.64389 1.125,-2.22758 2.5,-3.51933 1.375,-1.29175 2.5,-2.72428 2.5,-3.18342 0,-0.45913 1.35,-2.24743 3,-3.974 1.65,-1.72656 3,-3.60552 3,-4.17545 0,-1.14046 31.6458,-32.35546 37.7077,-37.19438 2.0857,-1.66499 5.0298,-3.65353 6.5423,-4.41898 1.5125,-0.76545 2.75,-1.76569 2.75,-2.22275 0,-0.45706 0.6053,-0.83102 1.345,-0.83102 0.7398,0 2.1595,-0.9 3.155,-2 0.9955,-1.1 2.3455,-2 3,-2 0.6545,0 2.007,-0.90276 3.0055,-2.00613 0.9986,-1.10337 2.0256,-1.79614 2.2822,-1.53947 0.2567,0.25666 2.322,-0.79228 4.5895,-2.33099 2.2675,-1.5387 5.5853,-3.43079 7.3728,-4.20464 1.7875,-0.77384 3.25,-1.74714 3.25,-2.16288 0,-0.41574 0.5905,-0.75589 1.3122,-0.75589 0.7217,0 3.1145,-0.8708 5.3174,-1.93512 2.2029,-1.06432 5.2166,-2.23917 6.6973,-2.61078 1.4806,-0.37161 2.9393,-1.07581 3.2416,-1.56488 0.3022,-0.48907 1.648,-0.88922 2.9905,-0.88922 1.3426,0 2.441,-0.45 2.441,-1 0,-0.55 1.0984,-1 2.441,-1 1.3425,0 2.7191,-0.45 3.059,-1 0.3399,-0.55 1.6899,-1 3,-1 1.3101,0 2.6601,-0.45 3,-1 0.3399,-0.55 1.9149,-1 3.5,-1 1.5851,0 3.1601,-0.45 3.5,-1 0.3399,-0.55 2.0765,-1 3.859,-1 1.7826,0 3.6685,-0.40637 4.191,-0.90305 1.0468,-0.99502 7.4678,-1.94804 17.45,-2.58993 3.575,-0.22989 8.109,-0.93413 10.0755,-1.56498 3.6156,-1.15984 10.6373,-0.94359 33.4245,1.02937 17.0603,1.47713 21.9218,2.13819 22.95,3.12078 0.5225,0.49929 2.6334,0.90781 4.691,0.90781 2.0575,0 4.0191,0.45 4.359,1 0.3399,0.55 1.9149,1 3.5,1 1.5851,0 3.1601,0.45 3.5,1 0.3399,0.55 1.9415,1 3.559,1 1.6176,0 2.941,0.45 2.941,1 0,0.55 0.8575,1 1.9055,1 1.048,0 3.6355,0.82446 5.75,1.83214 13.5283,6.44707 20.0865,9.88429 21.7831,11.41678 1.0662,0.9631 2.3078,1.75108 2.7591,1.75108 0.4513,0 2.2331,1.35 3.9597,3 1.7266,1.65 3.5207,3 3.987,3 1.2399,0 15.8556,14.86593 15.8556,16.12714 0,0.58874 1.2375,2.26348 2.75,3.72165 1.5126,1.45817 3.3856,3.88316 4.1624,5.38889 1.0325,2.00144 1.7443,2.46217 2.6468,1.71323 0.6789,-0.56345 1.0166,-1.85711 0.7504,-2.87482 -0.2661,-1.0177 0.01,-2.15272 0.6033,-2.52225 0.5979,-0.36953 1.0871,-2.64376 1.0871,-5.05384 0,-2.41008 0.45,-4.66008 1,-5 0.55,-0.33992 1,-2.58992 1,-5 0,-2.41008 0.45,-4.66008 1,-5 0.55,-0.33992 1,-2.58992 1,-5 0,-2.41008 0.45,-4.66008 1,-5 0.55,-0.33992 1,-2.36492 1,-4.5 0,-2.13508 0.45,-4.16008 1,-4.5 0.55,-0.33992 1,-1.89333 1,-3.45203 0,-1.66174 0.6543,-3.08507 1.5818,-3.44098 0.87,-0.33385 23.8179,-0.60699 50.9954,-0.60699 h 49.4137 l 0.2545,215.09546 c 0.1401,118.30263 4e-4,215.50673 -0.3102,216.00933 -0.3324,0.5378 -21.3182,0.8071 -51,0.6545 l -50.4356,-0.2594 -0.3196,-2.25 c -0.1757,-1.2375 -0.7382,-2.25 -1.25,-2.25 -0.5117,0 -0.9304,-1.3234 -0.9304,-2.941 0,-1.6175 -0.45,-3.2191 -1,-3.559 -0.55,-0.3399 -1,-1.9415 -1,-3.559 0,-1.6176 -0.45,-2.941 -1,-2.941 -0.55,0 -1,-1.3234 -1,-2.941 0,-1.6175 -0.45,-3.2191 -1,-3.559 -0.55,-0.3399 -1,-1.9149 -1,-3.5 0,-1.5851 -0.45,-3.1601 -1,-3.5 -0.55,-0.3399 -1,-1.6415 -1,-2.8924 0,-1.2508 -0.324,-2.5983 -0.72,-2.9942 -0.3959,-0.396 -0.7334,-1.7005 -0.75,-2.8988 -0.059,-4.2524 -3.3502,-3.0388 -10.0681,3.7123 -3.5975,3.6152 -6.9063,6.5731 -7.353,6.5731 -0.4468,0 -2.1265,1.2375 -3.7328,2.75 -3.9776,3.7454 -10.0497,8.25 -11.1208,8.25 -0.483,0 -1.7505,0.7881 -2.8167,1.7513 -1.0662,0.9632 -4.1886,2.8757 -6.9386,4.25 -2.75,1.3743 -5.15,2.8362 -5.3333,3.2487 -0.1834,0.4125 -1.1959,0.75 -2.25,0.75 -1.0542,0 -1.9167,0.45 -1.9167,1 0,0.55 -0.9,1 -2,1 -1.1,0 -2,0.4766 -2,1.059 0,0.5825 -0.4317,0.7922 -0.9593,0.4661 -0.5277,-0.3261 -1.8777,-0.1276 -3,0.441 -1.1224,0.5687 -2.9346,1.4839 -4.0271,2.0339 -1.0926,0.55 -2.866,1 -3.941,1 -1.075,0 -2.2327,0.45 -2.5726,1 -0.3399,0.55 -1.9149,1 -3.5,1 -1.5851,0 -3.1601,0.45 -3.5,1 -0.3399,0.55 -2.1399,1 -4,1 -1.8601,0 -3.6601,0.45 -4,1 -0.3399,0.55 -2.5899,1 -5,1 -2.4101,0 -4.6601,0.45 -5,1 -0.3399,0.55 -3.2547,1 -6.4772,1 -6.4181,0 -9.3136,0.7205 -8.458,2.1048 0.3189,0.5161 -8.3204,0.8952 -20.3988,0.8952 -17.7015,0 -21.0413,-0.2327 -21.5276,-1.5 z m 54.3616,-107.0215 c 3.025,-0.3645 5.9275,-1.0713 6.45,-1.5706 0.5225,-0.4993 2.4084,-0.9078 4.191,-0.9078 1.7825,0 3.5191,-0.45 3.859,-1 0.3399,-0.55 1.6899,-1 3,-1 1.3101,0 2.6601,-0.45 3,-1 0.3399,-0.55 1.4976,-1 2.5726,-1 1.075,0 2.7359,-0.4301 3.691,-0.9558 0.955,-0.5257 4.6614,-2.3122 8.2364,-3.9699 16.6799,-7.7348 34.6414,-21.8362 43.4017,-34.07433 10.8162,-15.1101 20.5933,-33.581 19.0753,-36.0371 -0.2803,-0.4536 -0.052,-1.1074 0.5067,-1.4528 0.559,-0.3455 1.0163,-1.8616 1.0163,-3.3691 0,-1.5076 0.4064,-3.1685 0.903,-3.691 2.393,-2.5174 3.3227,-32.2637 1.3425,-42.95 -2.5437,-13.7268 -4.7506,-21.9219 -6.4496,-23.95 -0.4378,-0.5225 -0.7959,-1.76 -0.7959,-2.75 0,-0.99 -0.45,-1.8 -1,-1.8 -0.55,0 -1.01,-0.7875 -1.0222,-1.75 -0.012,-0.9625 -0.9023,-2.875 -1.9778,-4.25 -1.0755,-1.375 -1.9655,-2.8219 -1.9778,-3.2153 -0.032,-1.0175 -4.8107,-8.3374 -9.6529,-14.7847 -6.3645,-8.47416 -25.4254,-25.99996 -28.2775,-25.99996 -0.6005,0 -1.0918,-0.36651 -1.0918,-0.81448 0,-1.19711 -16.5438,-10.17398 -18.7636,-10.18133 -0.6949,-0.002 -2.1574,-0.45419 -3.25,-1.00419 -1.0925,-0.55 -2.8803,-1.45 -3.9728,-2 -1.0926,-0.55 -2.866,-1 -3.941,-1 -1.075,0 -2.202,-0.40028 -2.5043,-0.88951 -0.3024,-0.48923 -2.0164,-1.14232 -3.809,-1.45131 -1.7926,-0.30898 -5.9593,-1.12295 -9.2593,-1.80881 -10.473,-2.17666 -46.3088,-1.26405 -48.95,1.24658 -0.5225,0.49668 -2.1834,0.90305 -3.691,0.90305 -1.5075,0 -3.0191,0.45 -3.359,1 -0.3399,0.55 -1.4976,1 -2.5726,1 -1.075,0 -2.7359,0.3975 -3.691,0.88333 -0.955,0.48583 -2.8614,1.33995 -4.2364,1.89804 -1.375,0.55809 -4.143,1.73559 -6.1511,2.61667 -2.0082,0.88108 -3.9521,1.60196 -4.3199,1.60196 -0.3677,0 -2.6308,1.35 -5.029,3 -2.3982,1.65 -4.7424,3 -5.2094,3 -0.467,0 -1.4978,0.9 -2.2906,2 -0.7928,1.1 -2.0304,2 -2.7501,2 -1.4791,0 -25.2499,23.30166 -25.2499,24.75156 0,0.5155 -1.0656,2.1774 -2.368,3.6931 -1.3024,1.5157 -3.3878,4.6232 -4.6341,6.9056 -6.1521,11.2657 -7.8435,14.6497 -7.322,14.6497 0.3129,0 0.1449,0.5625 -0.3733,1.25 -0.5183,0.6875 -1.5173,3.275 -2.2199,5.75 -0.7027,2.475 -1.6838,5.2814 -2.1802,6.2364 -0.4964,0.9551 -0.9025,2.841 -0.9025,4.191 0,1.35 -0.3936,2.6978 -0.8746,2.9951 -3.2106,1.9842 -3.236,47.6532 -0.028,51.0275 0.4966,0.5225 0.903,1.9911 0.903,3.2636 0,1.2724 0.3975,3.0949 0.8833,4.05 0.4859,0.955 1.3049,2.8614 1.8201,4.2364 2.1855,5.8326 8.9481,18.9257 12.5513,24.3007 6.619,9.8735 19.7489,23.60063 27.1668,28.40243 2.1568,1.3961 4.8291,3.3841 5.9385,4.4177 1.1094,1.0336 2.6073,1.8792 3.3286,1.8792 0.7213,0 1.3149,0.3375 1.3192,0.75 0,0.4125 1.0168,1.2551 2.25,1.8724 1.2332,0.6174 4.4922,2.303 7.2422,3.7458 2.75,1.4429 5.5686,2.6253 6.2636,2.6276 0.6949,0 2.1574,0.4542 3.25,1.0042 1.0925,0.55 2.8803,1.45 3.9728,2 1.0926,0.55 2.866,1 3.941,1 1.075,0 2.202,0.4003 2.5043,0.8895 0.5681,0.9192 2.6202,1.3748 13.3837,2.9712 3.4734,0.5152 6.6096,1.231 6.9692,1.5906 0.7339,0.7338 22.7449,0.048 31.2154,-0.9729 z M 240.92651,1136.4465 c -0.825,-0.5625 -5.41094,-1.0297 -10.19098,-1.0381 -4.78004,-0.01 -8.9691,-0.4653 -9.30902,-1.0153 -0.33992,-0.55 -3.03992,-1 -6,-1 -2.96008,0 -5.6307,-0.4025 -5.93472,-0.8944 -0.30401,-0.4919 -2.46806,-1.1543 -4.80901,-1.4721 -5.79776,-0.787 -8.55974,-1.3399 -13.25627,-2.6537 -2.2,-0.6154 -5.01915,-1.3664 -6.26478,-1.6688 -1.24563,-0.3024 -2.50968,-0.9461 -2.80901,-1.4304 -0.29934,-0.4843 -1.42379,-0.8806 -2.4988,-0.8806 -1.075,0 -2.73594,-0.3975 -3.69098,-0.8833 -0.95504,-0.4859 -3.08643,-1.4384 -4.73643,-2.1167 -1.65,-0.6783 -3.78139,-1.6308 -4.73643,-2.1167 -0.95504,-0.4858 -2.41754,-0.8833 -3.25,-0.8833 -0.83246,0 -1.51357,-0.45 -1.51357,-1 0,-0.55 -0.68111,-1 -1.51357,-1 -0.83246,0 -2.29496,-0.4282 -3.25,-0.9516 -0.95504,-0.5233 -3.53643,-1.7374 -5.73643,-2.6979 -2.2,-0.9604 -4.225,-1.9955 -4.5,-2.3 -0.275,-0.3045 -1.85,-1.2142 -3.5,-2.0215 -2.64273,-1.293 -4.86694,-2.6234 -13.0165,-7.7854 -1.09092,-0.691 -2.6585,-1.5581 -3.4835,-1.927 -0.825,-0.3689 -1.725,-0.9502 -2,-1.2918 -0.275,-0.3417 -2.075,-1.7031 -4,-3.0255 -1.925,-1.3224 -4.22778,-3.2133 -5.1173,-4.2019 -0.88951,-0.9886 -2.01451,-1.8053 -2.5,-1.8149 -0.48548,-0.01 -3.18995,-2.1471 -6.00993,-4.75 -2.81998,-2.6029 -8.046968,-7.2075 -11.615528,-10.2324 -3.56856,-3.025 -7.54225,-7.0142 -8.83043,-8.8649 -1.28818,-1.8508 -4.27369,-5.4099 -6.63448,-7.9091 -2.36078,-2.4993 -4.29233,-4.8346 -4.29233,-5.1897 0,-0.355 -1.462502,-2.314 -3.250002,-4.3532 -5.0472,-5.7582 -7.75,-9.4091 -7.75,-10.4688 0,-0.5332 -0.69728,-1.5481 -1.5495,-2.2554 -0.85223,-0.7073 -2.42604,-3.2101 -3.49737,-5.5618 -1.07132,-2.3517 -2.42681,-4.5718 -3.01218,-4.9336 -0.86224,-0.5329 -2.66648,-3.9395 -3.42328,-6.4635 -0.7847,-2.6171 -4.15601,-9 -4.75357,-9 -0.42026,0 -0.7641,-0.9 -0.7641,-2 0,-1.1 -0.45,-2 -1,-2 -0.55,0 -1,-0.6811 -1,-1.5136 0,-0.8324 -0.3975,-2.2949 -0.88333,-3.25003 -0.48583,-0.955 -1.43833,-3.0864 -2.11667,-4.7364 -0.67834,-1.65 -1.63084,-3.7814 -2.11667,-4.7364 -0.48583,-0.9551 -0.88333,-2.3659 -0.88333,-3.1352 0,-1.7731 -2.89026,-11.5654 -4.09227,-13.8648 -0.49925,-0.9551 -0.90773,-3.066 -0.90773,-4.691 0,-1.625 -0.45,-3.2327 -1,-3.5726 -0.55,-0.3399 -1,-2.3649 -1,-4.5 0,-2.1351 -0.45,-4.1601 -1,-4.5 -0.55,-0.3399 -1,-3.0399 -1,-6 0,-2.9601 -0.45,-5.6601 -1,-6 -1.27707,-0.7893 -1.36162,-52.7233 -0.088,-54.05 0.50161,-0.5225 1.1564,-3.425 1.45509,-6.45 0.94741,-9.595 1.81076,-14.4714 2.73533,-15.45 0.49366,-0.5225 0.89757,-2.2161 0.89757,-3.7636 0,-1.5474 0.41261,-3.5949 0.91691,-4.55 0.5043,-0.955 1.65568,-4.4364 2.55862,-7.7364 0.90294,-3.3 2.06533,-6.78136 2.58309,-7.73636 0.51776,-0.9551 0.94138,-2.6426 0.94138,-3.75 0,-1.1075 0.45,-2.0136 1,-2.0136 0.55,0 1,-0.6811 1,-1.5136 0,-0.8324 0.41032,-2.2949 0.91181,-3.25 1.49896,-2.8545 8.5444,-17.69644 8.65682,-18.2364 0.35506,-1.70534 2.08662,-4.77588 3.63088,-6.43856 0.99027,-1.06621 1.80049,-2.52871 1.80049,-3.25 0,-0.72129 0.45,-1.31144 1,-1.31144 0.55,0 1,-0.59015 1,-1.31144 0,-0.72129 0.9,-2.27747 2,-3.45819 1.1,-1.18071 2,-2.54581 2,-3.03357 0,-0.48775 0.9,-1.70131 2,-2.6968 1.1,-0.99549 2,-2.33679 2,-2.98067 0,-0.64389 1.125,-2.22758 2.5,-3.51933 1.375,-1.29175 2.5,-2.79481 2.5,-3.34013 0,-2.26433 22.974222,-26.12777 32.62269,-33.88536 3.23252,-2.59902 7.51172,-6.08652 9.50933,-7.75 1.9976,-1.66348 4.06536,-3.02451 4.59501,-3.02451 0.52965,0 1.77748,-0.9 2.77297,-2 0.99549,-1.1 2.20905,-2 2.6968,-2 0.48776,0 1.85286,-0.9 3.03357,-2 1.18072,-1.1 2.7369,-2 3.45819,-2 0.72129,0 1.3166,-0.3375 1.32291,-0.75 0.006,-0.4125 1.91881,-1.64318 4.25,-2.73485 2.33119,-1.09167 4.46353,-2.22875 4.73853,-2.52686 0.50757,-0.55021 20.83431,-10.54226 24.5,-12.04351 2.34707,-0.96122 6.71238,-2.32526 7.66667,-2.39562 0.36666,-0.027 1.00416,-0.38666 1.41666,-0.79916 0.4125,-0.4125 1.77345,-0.75 3.02432,-0.75 1.25087,0 2.55243,-0.45 2.89235,-1 0.33992,-0.55 1.71648,-1 3.05902,-1 1.34254,0 2.44098,-0.45 2.44098,-1 0,-0.55 1.54844,-1 3.44098,-1 1.89254,0 3.7191,-0.45 4.05902,-1 0.33992,-0.55 2.16648,-1 4.05902,-1 1.89254,0 3.44098,-0.40469 3.44098,-0.89931 0,-0.49461 1.9125,-1.15296 4.25,-1.46298 2.3375,-0.31002 7.175,-1.05815 10.75,-1.66251 3.575,-0.60436 9.875,-1.27284 14,-1.48551 4.125,-0.21268 9.79134,-0.91466 12.59188,-1.55997 3.09031,-0.71208 8.00393,-0.92102 12.5,-0.53153 4.07446,0.35296 12.35812,0.90101 18.40812,1.21788 6.05,0.31688 11.4275,0.98289 11.95,1.48003 0.5225,0.49715 3.30844,0.9039 6.19098,0.9039 2.88254,0 5.5191,0.45 5.85902,1 0.33992,0.55 2.36492,1 4.5,1 2.13508,0 4.16008,0.45 4.5,1 0.33992,0.55 2.13992,1 4,1 1.86008,0 3.66008,0.45 4,1 0.33992,0.55 1.94148,1 3.55902,1 1.61754,0 2.94098,0.45 2.94098,1 0,0.55 1.32344,1 2.94098,1 1.61754,0 3.18318,0.39188 3.47919,0.87084 0.45805,0.74113 4.60194,2.08375 8.07983,2.61787 0.55,0.0845 2.74246,0.90906 4.87212,1.83243 2.12967,0.92337 4.49217,1.67886 5.25,1.67886 0.75784,0 1.37788,0.45 1.37788,1 0,0.55 0.9,1 2,1 1.1,0 2,0.45 2,1 0,0.55 0.5625,0.99805 1.25,0.99567 1.72859,-0.006 19.71291,9.11745 22.0865,11.20447 1.06348,0.93508 3.38583,2.38927 5.16078,3.23155 1.77496,0.84227 3.79429,2.21471 4.4874,3.04986 0.69312,0.83515 1.80167,1.51845 2.46345,1.51845 0.66178,0 2.26012,1.125 3.55187,2.5 1.29175,1.375 2.75628,2.5 3.25452,2.5 1.73673,0 10.1953,7.604 25.16855,22.6258 15.19394,15.24318 22.25023,23.11804 21.87118,24.40834 -0.11317,0.3852 0.89933,1.73855 2.25,3.00743 1.35066,1.26888 2.45575,2.83387 2.45575,3.47776 0,1.26287 -3.79448,5.0597 -4.85499,4.85799 -1.20007,-0.22825 -3.62866,0.94832 -7.82519,3.79104 -2.29908,1.5574 -4.468,2.83164 -4.81981,2.83164 -0.35181,0 -2.60181,1.35 -5,3 -2.39819,1.65 -4.84177,3 -5.43018,3 -0.5884,0 -1.06982,0.45 -1.06982,1 0,0.55 -0.3375,0.90557 -0.75,0.79016 -1.20776,-0.33791 -8.25,3.35289 -8.25,4.32378 0,0.48733 -0.9,0.88606 -2,0.88606 -1.1,0 -2,0.34015 -2,0.75589 0,0.41574 -1.4625,1.38126 -3.25,2.1456 -1.7875,0.76434 -3.925,1.96532 -4.75,2.66881 -1.3525,1.1534 -9.97791,5.9894 -15.7422,8.8262 -1.23321,0.6069 -2.24571,1.441 -2.25,1.8535 -0.004,0.4125 -0.50504,0.75 -1.11278,0.75 -0.60773,0 -3.10529,1.35 -5.55013,3 -2.44483,1.65 -4.76009,3.0012 -5.14502,3.0026 -0.38493,0 -3.30991,1.5764 -6.49995,3.5 -5.80608,3.50096 -8.69992,4.34306 -8.69992,2.53166 0,-1.2747 -21.47182,-23.03426 -22.72963,-23.03426 -0.53556,0 -2.38639,-1.35 -4.11295,-3 -1.72657,-1.65 -3.39973,-3 -3.71814,-3 -0.31841,0 -2.54109,-1.35 -4.93928,-3 -2.39819,-1.65 -4.72927,-3.00188 -5.18018,-3.00419 -0.4509,-0.002 -3.03359,-1.1273 -5.7393,-2.5 -2.70571,-1.37269 -5.74321,-2.49581 -6.75,-2.49581 -1.00679,0 -1.83052,-0.45 -1.83052,-1 0,-0.55 -1.09844,-1 -2.44098,-1 -1.34254,0 -2.7191,-0.45 -3.05902,-1 -0.33992,-0.55 -1.91492,-1 -3.5,-1 -1.58508,0 -3.16008,-0.45 -3.5,-1 -0.33992,-0.55 -2.36492,-1 -4.5,-1 -2.13508,0 -4.14744,-0.42955 -4.47191,-0.95455 -0.78297,-1.26687 -39.27321,-1.26687 -40.05618,0 -0.32447,0.525 -2.33683,0.95455 -4.47191,0.95455 -2.13508,0 -4.16008,0.45 -4.5,1 -0.33992,0.55 -1.72258,1 -3.07259,1 -1.35,0 -3.23594,0.3975 -4.19098,0.88333 -2.00465,1.01977 -6.83199,3.05676 -9.73643,4.10847 -2.05276,0.74332 -8.16592,3.73643 -14.68189,7.18851 -2.02503,1.07284 -4.21763,2.59616 -4.87244,3.38515 -0.65481,0.789 -1.58956,1.43454 -2.07722,1.43454 -0.48766,0 -2.2993,1.35 -4.02587,3 -1.72656,1.65 -3.50301,3 -3.94765,3 -1.09825,0 -16.89493,15.6919 -16.89493,16.7829 0,0.4777 -1.125,1.9254 -2.5,3.21706 -1.375,1.2917 -2.5,2.8754 -2.5,3.5193 0,0.6439 -0.8122,1.9058 -1.80488,2.8041 -0.99269,0.8984 -2.42668,3.2181 -3.18665,5.155 -0.75997,1.9369 -1.74777,3.5216 -2.19512,3.5216 -0.44734,0 -0.81335,0.9 -0.81335,2 0,1.1 -0.45,2 -1,2 -0.55,0 -1,0.9 -1,2 0,1.1 -0.45,2 -1,2 -0.55,0 -1,0.6811 -1,1.5136 0,0.8324 -0.3975,2.2949 -0.88333,3.25 -2.53706,4.9873 -4.65615,11.864 -4.21585,13.681 0.12589,0.5195 -0.21912,1.8695 -0.76668,3 -3.23104,6.6708 -3.16904,42.3082 0.0805,46.2927 0.55499,0.6805 0.79286,1.8055 0.5286,2.5 -0.26426,0.6945 -0.0217,2.3877 0.53908,3.7627 0.56076,1.375 1.10122,2.95 1.20103,3.5 0.77955,4.2956 1.90817,7.5 2.64161,7.5 0.48125,0 0.875,0.8103 0.875,1.8006 0,2.2347 2.23533,7.181 3.25,7.1916 0.4125,0 0.75,0.9078 0.75,2.0078 0,1.1 0.45,2 1,2 0.55,0 1,0.5901 1,1.3114 0,0.7213 0.7875,2.2084 1.75,3.3046 0.9625,1.0963 2.31899,2.8686 3.01442,3.9386 0.69543,1.07 2.14969,3.2954 3.23169,4.9454 2.37095,3.6156 23.03061,24.50003 24.23634,24.50003 0.46815,0 1.84486,0.9297 3.05936,2.066 1.21451,1.1363 3.78319,2.8003 5.70819,3.6979 1.925,0.8975 3.725,1.9407 4,2.3181 0.9044,1.2412 8.02956,4.918 9.53042,4.918 0.80827,0 1.46958,0.45 1.46958,1 0,0.55 0.68111,1 1.51357,1 0.83246,0 2.29496,0.4172 3.25,0.927 2.22061,1.1855 5.31999,2.3511 7.23643,2.7215 5.77467,1.1159 7.73976,1.6062 9.5,2.3701 1.1,0.4773 4.025,1.1738 6.5,1.5477 7.42955,1.1223 35.10274,0.8196 41,-0.4485 3.025,-0.6505 6.70421,-1.3459 8.17603,-1.5455 1.47181,-0.1996 3.27181,-0.7362 4,-1.1926 0.72818,-0.4564 2.0716,-0.707 2.98538,-0.5569 0.91378,0.1501 1.95283,-0.1986 2.30902,-0.775 0.35618,-0.5763 1.45784,-1.0478 2.44812,-1.0478 1.96212,0 14.37406,-6.0334 14.91478,-7.25 0.18334,-0.4125 1.19584,-0.75 2.25,-0.75 1.05417,0 1.91667,-0.45 1.91667,-1 0,-0.55 0.60526,-1 1.34501,-1 0.73976,0 2.14334,-0.8821 3.11907,-1.9603 0.97573,-1.0782 2.10012,-1.8657 2.49863,-1.75 2.86016,0.8302 31.03729,-27.42023 31.03729,-31.11793 0,-2.1047 2.07422,-2.2551 4.75682,-0.345 1.50875,1.0744 3.19318,2.0682 3.74318,2.2086 0.55,0.1403 2.575,1.2125 4.5,2.3826 1.925,1.17 4.85,2.7922 6.5,3.6047 1.65,0.8125 3.87235,2.2648 4.93856,3.2273 1.06621,0.9625 2.52871,1.75 3.25,1.75 0.72129,0 1.31144,0.3491 1.31144,0.7759 0,0.4267 2.02074,1.6642 4.49053,2.75 2.46979,1.0857 4.49479,2.2276 4.5,2.5375 0.005,0.3098 1.58447,1.1813 3.50947,1.93663 1.925,0.7553 3.5,1.6686 3.5,2.0294 0,0.3609 2.1375,1.7333 4.75,3.0499 2.6125,1.3165 4.975,2.691 5.25,3.0543 0.275,0.3633 2.4125,1.4881 4.75,2.4994 2.3375,1.0113 4.25,2.1826 4.25,2.6029 0,0.4203 0.59015,0.7641 1.31144,0.7641 0.72129,0 2.18379,0.7875 3.25,1.75 1.06621,0.9625 3.28856,2.4056 4.93856,3.2069 1.65,0.8012 3.74137,2.0667 4.64749,2.8122 0.90612,0.7454 4.0726,2.6136 7.03663,4.1514 9.0937,4.7181 9.86298,5.3527 9.17157,7.5654 -0.62257,1.9924 -3.45733,5.9386 -7.34764,10.2284 -1.10443,1.2178 -2.00805,2.6136 -2.00805,3.1017 0,0.488 -1.2436,2.1916 -2.76357,3.7857 -1.51996,1.5941 -4.10746,4.6869 -5.75,6.8731 -3.85879,5.1358 -20.74619,21.5387 -26.23643,25.4838 -2.3375,1.6796 -4.25,3.501 -4.25,4.0476 0,0.5465 -0.60826,0.9937 -1.35169,0.9937 -0.74342,0 -2.76433,1.35 -4.49089,3 -1.72657,1.65 -3.53821,3 -4.02587,3 -0.48766,0 -1.48577,0.7219 -2.21801,1.6042 -0.73224,0.8823 -2.24984,2.0062 -3.37244,2.4976 -2.08165,0.9112 -2.97611,1.4452 -10.0246,5.9853 -2.20908,1.4229 -5.479,3.2203 -7.2665,3.9941 -1.7875,0.7739 -3.25,1.7472 -3.25,2.1629 0,0.4158 -0.9,0.7559 -2,0.7559 -1.1,0 -2,0.3975 -2,0.8834 0,0.7401 -2.51041,1.9461 -5.16667,2.4821 -0.36666,0.074 -1.00416,0.472 -1.41666,0.8845 -0.4125,0.4125 -1.575,0.75 -2.58334,0.75 -1.00833,0 -1.83333,0.45 -1.83333,1 0,0.55 -0.68111,1 -1.51357,1 -0.83246,0 -2.40746,0.45 -3.5,1 -1.09254,0.55 -2.88032,1.45 -3.97286,2 -1.09254,0.55 -2.89254,1 -4,1 -1.10746,0 -2.01357,0.45 -2.01357,1 0,0.55 -1.09844,1 -2.44098,1 -1.34254,0 -2.7191,0.45 -3.05902,1 -0.33992,0.55 -1.68992,1 -3,1 -1.31008,0 -2.66008,0.45 -3,1 -0.33992,0.55 -1.91492,1 -3.5,1 -1.58508,0 -3.14299,0.4223 -3.46201,0.9385 -0.31903,0.5162 -1.54974,0.7518 -2.73492,0.5236 -1.18518,-0.2283 -2.63822,-0.026 -3.22897,0.449 -1.036,0.8333 -5.07906,1.5748 -14.5741,2.6729 -2.475,0.2862 -5.4,0.9335 -6.5,1.4383 -3.69354,1.6951 -45.37865,3.4776 -47.5,2.0311 z M 1414.9264,918.69407 V 707.39321 h 55.5 55.5 v 24 c 0,20.66667 0.2083,24 1.5,24 0.825,0 1.5,-0.60526 1.5,-1.34501 0,-0.73976 0.9,-2.1595 2,-3.15499 1.1,-0.99549 2,-2.32762 2,-2.96031 0,-2.09737 27.233,-27.53969 29.478,-27.53969 0.3639,0 2.5427,-1.26753 4.8418,-2.81674 4.0117,-2.70321 10.8174,-6.18326 12.0922,-6.18326 0.6569,0 8.975,-3.57485 11.8244,-5.08171 0.9551,-0.50506 2.616,-0.91829 3.691,-0.91829 1.075,0 2.2327,-0.45 2.5726,-1 0.3399,-0.55 1.9149,-1 3.5,-1 1.5851,0 3.1307,-0.40247 3.4347,-0.89437 0.5508,-0.89113 4.5683,-1.67582 14.0653,-2.74719 2.75,-0.31023 5.469,-0.94529 6.0422,-1.41124 0.5732,-0.46596 4.8723,-0.8472 9.5534,-0.8472 4.6812,0 9.7539,-0.4725 11.2729,-1.05 5.6237,-2.13813 6.6315,-1.54681 6.6315,3.89098 0,2.71754 -0.45,5.2191 -1,5.55902 -0.55,0.33992 -1,2.36492 -1,4.5 0,2.13508 -0.45,4.16008 -1,4.5 -0.55,0.33992 -1,2.58992 -1,5 0,2.41008 -0.45,4.66008 -1,5 -0.55,0.33992 -1,2.30148 -1,4.35902 0,2.05754 -0.4064,4.16848 -0.903,4.69098 -0.4967,0.5225 -1.1803,3.2 -1.5191,5.95 -1.1467,9.3067 -1.2607,9.99669 -2.065,12.49519 -0.4418,1.37236 -0.7683,3.72704 -0.7255,5.23263 0.043,1.50558 -0.3418,2.99681 -0.8548,3.31382 -0.5129,0.31702 -0.9326,2.54828 -0.9326,4.95836 0,2.41008 -0.45,4.66008 -1,5 -0.55,0.33992 -1,2.36492 -1,4.5 0,2.13508 -0.45,4.16008 -1,4.5 -0.55,0.33992 -1,2.61648 -1,5.05902 0,2.44254 -0.45,4.44098 -1,4.44098 -0.55,0 -1,1.99243 -1,4.42761 v 4.42762 l -16.0427,0.0601 c -8.8235,0.033 -16.811,0.45433 -17.75,0.93619 -0.939,0.48187 -2.9115,0.70147 -4.3833,0.48802 -1.4717,-0.21346 -2.9608,0.0728 -3.309,0.63619 -0.3482,0.56337 -1.7049,1.0243 -3.015,1.0243 -1.3101,0 -2.6601,0.45 -3,1 -0.3399,0.55 -1.379,0.99628 -2.309,0.99173 -2.994,-0.0147 -17.7264,8.0077 -23.6027,12.85255 -8.2794,6.82615 -15.7541,16.11249 -20.0701,24.93469 -2.0775,4.2466 -4.169,8.50236 -4.6477,9.45736 -0.4788,0.9551 -0.8705,2.6426 -0.8705,3.75 0,1.1075 -0.45,2.0136 -1,2.0136 -0.55,0 -1,1.3234 -1,2.941 0,1.6175 -0.45,3.2191 -1,3.559 -0.55,0.3399 -1,2.3015 -1,4.359 0,2.0576 -0.4121,4.1685 -0.9157,4.691 -2.0898,2.168 -2.4095,19.5874 -2.4948,135.95003 l -0.09,121.9999 -55.75,0.051 -55.75,0.051 V 918.69427 Z m 1121,-0.01 V 707.39301 h 54 54 v 22.5 c 0,19.62745 0.1973,22.5 1.5455,22.5 1.6085,0 6.4545,-4.29947 6.4545,-5.7266 0,-0.99647 18.8291,-20.27245 19.8056,-20.27575 0.3819,-10e-4 2.2694,-1.35023 4.1944,-2.99765 1.925,-1.64742 4.0625,-2.99636 4.75,-2.99765 0.6875,-10e-4 1.25,-0.37631 1.25,-0.83337 0,-0.45706 1.2375,-1.46884 2.75,-2.24841 1.5125,-0.77956 2.975,-1.66655 3.25,-1.97108 0.4639,-0.51368 7.8777,-4.21885 9,-4.4979 1.5487,-0.38508 8.842,-3.35022 11.2364,-4.56826 0.9551,-0.48583 2.616,-0.88333 3.691,-0.88333 1.075,0 2.2327,-0.45 2.5726,-1 0.3399,-0.55 1.6899,-1 3,-1 1.3101,0 2.6601,-0.45 3,-1 0.3399,-0.55 2.3015,-1 4.359,-1 2.0576,0 4.1685,-0.40637 4.691,-0.90305 1.1503,-1.09347 8.038,-2.03034 19.45,-2.6456 4.675,-0.25205 9.8047,-0.90671 11.3992,-1.45481 5.2733,-1.81255 7.3495,-1.31808 7.3623,1.75346 0.01,1.5125 -0.4565,3.63716 -1.0287,4.72146 -0.5721,1.0843 -0.9854,3.42912 -0.9184,5.21071 0.067,1.7816 -0.3139,3.5085 -0.8463,3.83756 -0.5325,0.32907 -0.9681,2.50675 -0.9681,4.83929 0,2.33254 -0.4039,4.66848 -0.8976,5.19098 -0.4936,0.5225 -1.1794,2.975 -1.5238,5.45 -1.5436,11.09147 -1.8353,12.55491 -2.681,13.45 -0.4937,0.5225 -0.8976,2.85844 -0.8976,5.19098 0,2.33254 -0.45,4.5191 -1,4.85902 -0.55,0.33992 -1,2.52648 -1,4.85902 0,2.33254 -0.4039,4.66848 -0.8976,5.19098 -0.8476,0.89717 -1.8623,6.25717 -2.4515,12.95 -0.1453,1.65 -0.6441,4.125 -1.1085,5.5 -0.4644,1.375 -0.9764,3.85 -1.1378,5.5 -0.1614,1.65 -0.6559,5.25 -1.099,8 l -0.8056,5 -13.9151,0.14859 c -7.6533,0.0817 -15.7533,0.47275 -18,0.86894 -2.2467,0.39618 -4.9849,0.87045 -6.0849,1.05393 -6.0011,1.00094 -8.5,1.74827 -8.5,2.54204 0,0.48757 -0.8368,0.8865 -1.8595,0.8865 -2.005,0 -14.4241,6.01303 -14.9738,7.25 -0.1834,0.4125 -0.8924,0.75 -1.5757,0.75 -0.6833,0 -2.2993,1.125 -3.591,2.5 -1.2917,1.375 -2.8836,2.5 -3.5375,2.5 -1.845,0 -15.4625,15.7529 -15.4625,17.8872 0,0.6121 -0.45,1.1128 -1,1.1128 -0.55,0 -1,0.8625 -1,1.9167 0,1.0541 -0.3375,2.0666 -0.75,2.25 -0.7177,0.3189 -4.6815,8.1381 -6.2522,12.33326 -0.4118,1.1 -1.2548,3.2587 -1.8733,4.7971 -0.6185,1.5383 -1.1245,3.8743 -1.1245,5.1909 0,1.3167 -0.4618,2.6794 -1.0263,3.0282 -0.5644,0.3489 -1.0278,2.0629 -1.0297,3.809 0,1.7462 -0.4929,6.9998 -1.091,11.6748 -0.6958,5.4383 -1.3154,51.9038 -1.7202,129.00003 l -0.6328,120.4999 -53.75,0.041 -53.75,0.041 V 918.68397 Z"
       id="path847" />
  </g>
</svg>
